<?xml version="1.0" encoding="utf-8"?>
<!-- Generator: Adobe Illustrator 15.0.2, SVG Export Plug-In . SVG Version: 6.00 Build 0)  -->
<!DOCTYPE svg PUBLIC "-//W3C//DTD SVG 1.1//EN" "http://www.w3.org/Graphics/SVG/1.1/DTD/svg11.dtd">
<svg version="1.1" id="Layer_1" xmlns="http://www.w3.org/2000/svg" xmlns:xlink="http://www.w3.org/1999/xlink" x="0px" y="0px"
	 width="512px" height="512px" viewBox="0 0 512 512" enable-background="new 0 0 512 512" xml:space="preserve">
<g>
	<path fill="#414042" d="M143.196,104.932c2.753,0,4.833-1.933,4.833-4.347V87.63c0-2.456-2.08-4.359-4.833-4.359h-33.51
		c-2.771,0-4.854,1.904-4.854,4.359v12.955c0,2.333,2.083,4.355,4.854,4.355h33.51V104.932z"/>
	<path fill="#414042" d="M331.977,265.188c0,36.223-29.403,65.692-65.729,65.692c-36.258,0-65.674-29.469-65.674-65.692
		c0-36.305,29.416-65.737,65.674-65.737C302.574,199.452,331.977,228.884,331.977,265.188L331.977,265.188z"/>
	<path fill="#414042" d="M18.5,169.651v215.841c0,43.237,43.246,43.237,43.246,43.237h388.492c0,0,43.262,0,43.262-43.237V169.651
		c0-43.135-43.262-43.135-43.262-43.135h-86.324l-21.612-43.246H191.169l-21.494,43.246H61.746
		C61.746,126.516,18.5,126.516,18.5,169.651L18.5,169.651z M385.535,169.651c11.881,0,21.519,9.667,21.519,21.572
		c0,11.897-9.638,21.608-21.519,21.608c-11.905,0-21.621-9.711-21.621-21.608C363.914,179.318,373.629,169.651,385.535,169.651
		L385.535,169.651z M266.751,169.651c53.635,0,97.162,43.467,97.162,97.167c0,53.664-43.527,97.077-97.162,97.077
		c-53.652,0-97.077-43.405-97.077-97.077C169.675,213.118,213.1,169.651,266.751,169.651L266.751,169.651z"/>
</g>
</svg>
