<?xml version="1.0" encoding="utf-8"?>
<!-- Generator: Adobe Illustrator 15.0.2, SVG Export Plug-In . SVG Version: 6.00 Build 0)  -->
<!DOCTYPE svg PUBLIC "-//W3C//DTD SVG 1.1//EN" "http://www.w3.org/Graphics/SVG/1.1/DTD/svg11.dtd">
<svg version="1.1" id="Layer_1" xmlns="http://www.w3.org/2000/svg" xmlns:xlink="http://www.w3.org/1999/xlink" x="0px" y="0px"
	 width="512px" height="512px" viewBox="0 0 512 512" enable-background="new 0 0 512 512" xml:space="preserve">
<g>
	<path fill="#414042" d="M74.473,265.122c0.14-3.877,0.487-15.639,9.317-18.984c8.727-3.276,17.316,5.236,18.938,7.005
		c2.656,2.857,2.518,7.31-0.345,9.967c-2.827,2.692-7.313,2.518-9.972-0.305c-0.928-0.985-2.169-1.978-3.206-2.597
		c-0.239,1.037-0.514,2.71-0.583,5.35c-0.559,18.183,13.521,23.942,14.105,24.186c2.518,1.002,4.277,3.328,4.521,5.994
		c4.173,49.888,43.467,66.041,61.814,66.041c18.393,0,57.686-16.153,61.858-66.041c0.24-2.718,2-5.062,4.553-6.038
		c0.553-0.2,14.628-5.959,14.074-24.142c-0.069-2.64-0.339-4.312-0.583-5.35c-1.037,0.619-2.317,1.664-3.206,2.597
		c-2.697,2.823-7.145,2.962-9.977,0.305c-2.861-2.657-3.001-7.109-0.34-9.967c1.621-1.725,10.212-10.281,18.941-7.005
		c8.826,3.346,9.174,15.142,9.274,18.984c0.658,21.372-12.21,31.8-19.076,35.799c-6.247,51.674-47.431,74.997-75.52,74.997
		c-28.041,0-69.233-23.323-75.511-74.997C86.688,296.879,73.854,286.494,74.473,265.122L74.473,265.122z M169.099,410.08
		c2.178,0,20.013-4.435,20.013-22.261H149.06C149.06,405.646,166.895,410.08,169.099,410.08L169.099,410.08z M181.933,412.676
		c-1.826-0.296-3.756,0.079-5.315,1.106c-3.236,2.248-6.168,3.145-7.519,3.494c-1.412-0.349-4.309-1.246-7.589-3.494
		c-1.551-1.028-3.445-1.438-5.275-1.106c-1.86,0.357-3.485,1.429-4.552,2.979c-2.867,4.208-16.702,75.825-16.803,76.504
		c-0.688,3.877,1.86,7.536,5.729,8.225c3.859,0.688,7.484-1.899,8.173-5.733c2.348-13.277,9.767-48.772,13.391-64.742
		c3.341,1.237,5.725,1.508,6.134,1.577c0.522,0.044,1.037,0.044,1.521,0c0.413-0.069,2.796-0.34,6.142-1.577
		c3.621,15.97,11.039,51.465,13.422,64.742c0.584,3.407,3.551,5.838,6.927,5.838c0.418,0,0.836-0.035,1.245-0.104
		c3.834-0.688,6.383-4.348,5.729-8.225c-0.143-0.68-13.939-72.296-16.836-76.504C185.417,414.105,183.762,413.033,181.933,412.676
		L181.933,412.676z M81.547,471.163c-3.934,0-7.074,3.136-7.074,7.022v15.229c0,3.877,3.141,7.075,7.074,7.075
		c3.899,0,7.04-3.197,7.04-7.075v-15.229C88.587,474.299,85.446,471.163,81.547,471.163L81.547,471.163z M107.249,205.171
		c-6.447,7.771-10.595,17.539-12.041,28.194c-0.514,3.859,2.209,7.423,6.072,7.937c0.314,0.043,0.619,0.07,0.933,0.07
		c3.485,0,6.517-2.588,6.996-6.134c1.071-8.016,4.183-15.299,8.938-21.015c2.483-2.997,2.074-7.449-0.932-9.967
		C114.219,201.765,109.767,202.192,107.249,205.171L107.249,205.171z M224.919,241.302c0,3.895,3.142,7.074,7.04,7.074
		c3.895,0,7.07-3.18,7.07-7.074c0-40.6-30.255-51.708-46.363-51.961H128.22c-3.895,0-7.07,3.189-7.07,7.083s3.176,7.075,7.07,7.075
		h64.307C195.837,203.568,224.919,205.285,224.919,241.302L224.919,241.302z M248.373,225.576c0.279,0,0.558-0.026,0.867-0.07
		c3.863-0.461,6.626-3.964,6.173-7.841c-4.723-40.46-39.498-50.802-57.303-50.367h-60.777c-3.898,0-7.074,3.189-7.074,7.083
		s3.176,7.074,7.074,7.074h60.848c1.586,0.07,38.779,0.07,43.227,37.873C241.821,222.919,244.857,225.576,248.373,225.576
		L248.373,225.576z M488.933,7.86H24.419c-3.899,0-7.072,3.171-7.072,7.066v368.406c0,3.895,3.173,7.075,7.072,7.075h42.917
		c-24.6,18.313-51.336,50.288-51.336,103.007c0,3.877,3.176,7.075,7.07,7.075c3.901,0,7.076-3.197,7.076-7.075
		c0-71.207,53.159-99.601,73.651-107.913l0.933,17.355c0.135,2.344,1.41,4.487,3.449,5.689c1.103,0.662,2.344,1.002,3.625,1.002
		c0.993,0,2.029-0.235,2.997-0.688l23.562-11.039c3.516-1.655,5.036-5.863,3.38-9.436c-1.654-3.502-5.902-5.018-9.422-3.363
		l-14.07,6.63l-1.521-27.845c-0.205-3.903-3.551-6.831-7.415-6.665c-3.898,0.218-6.896,3.528-6.695,7.423l0.349,6.16
		c-3.066,1.185-7.449,2.988-12.659,5.567c-0.035,0-0.069-0.052-0.104-0.052H31.489V22.009h450.404v354.231H357.732
		c22.564-47.936,17.808-105.543,17.529-108.47c-0.313-3.668-3.346-6.456-7.005-6.456H333.52c-3.938,0-7.074,3.171-7.074,7.075
		c0,36.096-9.662,62.373-28.668,78.029c-22.112,18.148-51.504,17.425-63.405,16.257c-0.657-3.014-3.136-5.349-6.386-5.532
		c-3.859-0.201-7.205,2.762-7.414,6.665l-1.552,27.845l-12.902-6.073c-3.555-1.664-7.764-0.183-9.418,3.38
		c-1.656,3.511-0.141,7.728,3.38,9.366l22.426,10.534c0.963,0.453,1.965,0.688,2.997,0.688c1.28,0,2.522-0.34,3.624-1.002
		c2.035-1.202,3.312-3.345,3.45-5.689l1.421-26.007c14.619,1.411,47.012,1.551,72.645-19.455
		c21.184-17.355,32.532-44.921,33.809-81.94h21.079c0.688,20.422-0.174,84.598-34.466,122.026
		c-17.281,18.863-40.983,28.42-70.44,28.42c-3.903,0-7.075,3.171-7.075,7.075c0,3.894,3.172,7.065,7.075,7.065
		c33.595,0,60.821-11.134,80.896-33.081c4.722-5.167,8.864-10.725,12.528-16.554h34.667v106.667c0,3.895,3.171,7.065,7.065,7.065
		c3.903,0,7.074-3.171,7.074-7.065V390.407h17.66v106.667c0,3.895,3.146,7.065,7.075,7.065c3.895,0,7.039-3.171,7.039-7.065V390.407
		h58.304c3.895,0,7.066-3.18,7.066-7.075V14.926C495.999,11.032,492.827,7.86,488.933,7.86L488.933,7.86z M256.658,449.051
		c-3.902,0-7.074,3.137-7.074,7.057v37.307c0,3.877,3.172,7.075,7.074,7.075c3.895,0,7.036-3.197,7.036-7.075v-37.307
		C263.694,452.188,260.553,449.051,256.658,449.051L256.658,449.051z M227.611,65.851c3.898,0,7.074-3.171,7.074-7.083
		c0-3.886-3.176-7.066-7.074-7.066H101.655c-3.895,0-7.065,3.18-7.065,7.066c0,3.912,3.171,7.083,7.065,7.083H227.611z
		 M64.436,86.752c0,3.903,3.176,7.083,7.075,7.083h156.101c3.898,0,7.074-3.18,7.074-7.083c0-3.886-3.176-7.083-7.074-7.083H71.511
		C67.611,79.668,64.436,82.866,64.436,86.752L64.436,86.752z M71.511,121.767h156.101c3.898,0,7.074-3.127,7.074-7.031
		s-3.176-7.083-7.074-7.083H71.511c-3.899,0-7.075,3.18-7.075,7.083S67.611,121.767,71.511,121.767L71.511,121.767z M71.511,149.743
		h156.101c3.898,0,7.074-3.171,7.074-7.074c0-3.886-3.176-7.04-7.074-7.04H71.511c-3.899,0-7.075,3.154-7.075,7.04
		C64.436,146.571,67.611,149.743,71.511,149.743L71.511,149.743z M465.818,71.54c2.998-2.518,3.346-6.979,0.824-9.933
		c-2.514-2.997-6.966-3.38-9.938-0.828l-76.547,64.751l-40.017-42.02c-2.383-2.962-6.656-3.511-9.731-1.307l-48.015,40.365
		c-3.146,2.274-3.834,6.717-1.524,9.862c2.317,3.137,6.734,3.833,9.871,1.516l42.568-36.322l40.321,42.386
		c1.212,1.49,2.972,2.422,4.871,2.631c0.209,0.026,0.448,0.026,0.688,0.026c1.647,0,3.276-0.575,4.557-1.682L465.818,71.54z
		 M342.903,142.973l-2.282,51.308c3.319-0.339,6.246-0.375,8.181-0.375c7.654,0,30.907,0,30.907,22.766v9.767
		c0,17.033-13.865,30.877-30.907,30.877s-30.877-13.844-30.877-30.877v-9.767c0-8.904,3.555-14.28,8.347-17.59l2.482-56.718
		c0.21-3.895,3.765-6.831,7.389-6.734C340.037,135.812,343.069,139.123,342.903,142.973L342.903,142.973z M348.802,208.055
		c-16.771,0-16.771,4.583-16.771,8.617v9.767c0,9.235,7.527,16.763,16.771,16.763s16.798-7.527,16.798-16.763v-9.767
		C365.6,212.638,365.6,208.055,348.802,208.055L348.802,208.055z M169.896,268.389v35.773h-8.69c-3.903,0-7.04,3.171-7.04,7.066
		s3.137,7.074,7.04,7.074h15.761c3.903,0,7.074-3.18,7.074-7.074v-42.839c0-3.903-3.171-7.075-7.074-7.075
		C173.067,261.314,169.896,264.486,169.896,268.389L169.896,268.389z M169.896,268.389"/>
</g>
</svg>
