<?xml version="1.0" encoding="utf-8"?>
<!-- Generator: Adobe Illustrator 15.0.2, SVG Export Plug-In . SVG Version: 6.00 Build 0)  -->
<!DOCTYPE svg PUBLIC "-//W3C//DTD SVG 1.1//EN" "http://www.w3.org/Graphics/SVG/1.1/DTD/svg11.dtd">
<svg version="1.1" id="Layer_1" xmlns="http://www.w3.org/2000/svg" xmlns:xlink="http://www.w3.org/1999/xlink" x="0px" y="0px"
	 width="512px" height="512px" viewBox="0 0 512 512" enable-background="new 0 0 512 512" xml:space="preserve">
<g>
	<path fill="#414042" d="M453.943,48.149H58.053c-21.817,0-39.553,17.76-39.553,39.585v257.993
		c0,21.805,17.735,39.573,39.553,39.573h127.561l-24.22,53.378c-2.487,5.528-2.018,11.917,1.263,17.012
		c3.285,5.07,8.919,8.159,14.97,8.159h156.748c0.008,0,0.013,0,0.024,0c9.847,0,17.813-7.979,17.813-17.809
		c0-2.979-0.731-5.765-2.002-8.224l-23.819-52.517h127.553c21.812,0,39.557-17.768,39.557-39.573V87.735
		C493.5,65.91,475.756,48.149,453.943,48.149z M457.886,345.728c0,2.182-1.765,3.947-3.942,3.947H58.053
		c-2.174,0-3.931-1.765-3.931-3.947V87.735c0-2.198,1.757-3.955,3.931-3.955h395.891c2.178,0,3.942,1.757,3.942,3.955V345.728z"/>
	<path fill="#414042" d="M192.272,253.136c-0.809-0.813-2.075-1.042-3.325-0.629c-1.218,0.425-2.239,1.458-2.66,2.692l-13.208,39.12
		c-0.409,1.217-0.181,2.476,0.629,3.285c0.612,0.604,1.463,0.895,2.394,0.805c0.286-0.016,0.597-0.073,0.891-0.18l39.107-13.196
		c1.238-0.438,2.28-1.455,2.697-2.672c0.441-1.259,0.195-2.529-0.613-3.338L192.272,253.136z"/>
	<path fill="#414042" d="M291.03,234.902c1.744-0.792,2.999-2.337,3.407-4.18c0.412-1.859-0.065-3.792-1.275-5.25
		c-2.275-2.696-4.657-5.458-7.121-8.236l21.466-21.458c0.716-0.728,1.152-1.622,1.23-2.566c0.069-0.932-0.226-1.802-0.821-2.39
		l-27.439-27.418c-1.237-1.283-3.46-1.107-4.939,0.404l-20.935,20.927c-14.038-13.307-28.142-25.192-40.578-34.107
		c-8.751-6.304-24.763-16.869-33.661-17.012c-1.639-0.017-3.199,0.617-4.359,1.761c-1.164,1.152-1.814,2.717-1.785,4.347
		c0.028,6.059,5.364,17.008,14.998,30.842c9.168,13.151,21.76,28.272,36.133,43.434l-27.308,27.3
		c-1.491,1.487-1.667,3.71-0.409,4.96l27.431,27.435c0.613,0.617,1.487,0.899,2.382,0.809c0.896-0.078,1.818-0.486,2.562-1.213
		l27.839-27.855c2.423,2.137,4.842,4.249,7.224,6.247c1.099,0.948,2.488,1.455,3.905,1.455c0.327,0,0.646-0.024,0.98-0.086
		c1.741-0.278,3.277-1.312,4.188-2.843c1.638-2.668,3.763-5.303,6.308-7.844C283.647,239.131,287.214,236.626,291.03,234.902z"/>
	<path fill="#414042" d="M306.221,239.956c-7.048,0-13.781,3.011-19.473,8.694c-6.811,6.819-9.797,14.001-8.612,20.714
		c1.185,6.651,6.472,12.628,14.521,16.354c6.917,3.191,13.217,4.229,18.781,5.103c5.867,0.895,11.379,1.777,16.306,5.119
		c1.013,0.674,2.189,1.042,3.396,1.042c0.837,0,1.671-0.171,2.467-0.519c1.921-0.85,3.253-2.651,3.534-4.747
		c2.116-15.701-0.902-29.809-8.493-39.72C322.796,244.34,314.624,239.956,306.221,239.956z"/>
	<path fill="#414042" d="M310.854,133.02c-1.242-1.262-3.465-1.07-4.932,0.384l-19.337,19.341c-1.471,1.479-1.667,3.693-0.409,4.976
		l27.439,27.418c0.625,0.629,1.508,0.887,2.395,0.821c0.891-0.09,1.801-0.515,2.562-1.246l19.316-19.321
		c1.475-1.496,1.667-3.686,0.408-4.936L310.854,133.02z"/>
</g>
</svg>
