<?xml version="1.0" encoding="utf-8"?>
<!-- Generator: Adobe Illustrator 15.0.2, SVG Export Plug-In . SVG Version: 6.00 Build 0)  -->
<!DOCTYPE svg PUBLIC "-//W3C//DTD SVG 1.1//EN" "http://www.w3.org/Graphics/SVG/1.1/DTD/svg11.dtd">
<svg version="1.1" id="Layer_1" xmlns="http://www.w3.org/2000/svg" xmlns:xlink="http://www.w3.org/1999/xlink" x="0px" y="0px"
	 width="512px" height="512px" viewBox="0 0 512 512" enable-background="new 0 0 512 512" xml:space="preserve">
<g>
	<g>
		<path fill="#231F20" d="M348.121,175.851h-184.24c-1.01,0-1.83,0.814-1.83,1.833v120.074c0,1.015,0.82,1.833,1.83,1.833h184.24
			c1.016,0,1.838-0.818,1.838-1.833V177.684C349.958,176.665,349.136,175.851,348.121,175.851z M238.689,268.264
			c-0.195,0.57-0.678,1.042-1.254,1.243l-18.201,6.146c-0.141,0.046-0.283,0.069-0.416,0.081c-0.432,0.042-0.832-0.093-1.115-0.377
			c-0.373-0.373-0.484-0.957-0.293-1.527l6.146-18.205c0.199-0.576,0.674-1.062,1.244-1.253c0.58-0.193,1.168-0.089,1.545,0.292
			l12.059,12.047C238.777,267.092,238.893,267.68,238.689,268.264z M262.496,254.621c-0.154,0.031-0.305,0.043-0.453,0.043
			c-0.662,0-1.307-0.234-1.818-0.673c-1.111-0.936-2.234-1.914-3.365-2.91l-12.953,12.962c-0.346,0.34-0.777,0.527-1.191,0.566
			c-0.42,0.037-0.824-0.093-1.107-0.381l-12.771-12.767c-0.584-0.58-0.5-1.61,0.191-2.307l12.709-12.706
			c-6.688-7.053-12.547-14.091-16.812-20.208c-4.484-6.439-6.967-11.536-6.982-14.357c-0.016-0.762,0.289-1.484,0.832-2.022
			c0.537-0.531,1.268-0.831,2.027-0.823c4.146,0.065,11.596,4.99,15.666,7.919c5.785,4.151,12.351,9.681,18.886,15.873l9.74-9.738
			c0.689-0.698,1.723-0.779,2.299-0.188l12.768,12.759c0.281,0.276,0.418,0.677,0.389,1.115c-0.039,0.438-0.242,0.856-0.578,1.188
			l-9.986,9.991c1.143,1.292,2.254,2.578,3.312,3.836c0.562,0.677,0.785,1.576,0.592,2.44c-0.191,0.858-0.775,1.581-1.582,1.945
			c-1.775,0.804-3.438,1.97-4.926,3.468c-1.188,1.188-2.172,2.415-2.932,3.656C264.023,254.011,263.306,254.49,262.496,254.621z
			 M293.763,272.625c-0.129,0.971-0.752,1.806-1.643,2.206c-0.369,0.157-0.758,0.238-1.15,0.238c-0.557,0-1.107-0.166-1.582-0.481
			c-2.291-1.557-4.857-1.967-7.586-2.388c-2.588-0.406-5.521-0.884-8.742-2.376c-3.746-1.729-6.205-4.513-6.754-7.606
			c-0.555-3.126,0.832-6.463,4.01-9.642c2.645-2.644,5.777-4.045,9.059-4.045c3.91,0,7.711,2.042,10.439,5.603
			C293.341,258.747,294.748,265.312,293.763,272.625z M294.111,213.832l-8.988,8.989c-0.354,0.34-0.781,0.539-1.191,0.58
			c-0.414,0.028-0.822-0.09-1.115-0.383l-12.771-12.763c-0.584-0.592-0.494-1.622,0.193-2.314l8.994-8.996
			c0.686-0.681,1.719-0.771,2.299-0.184l12.771,12.771C294.886,212.117,294.798,213.135,294.111,213.832z"/>
		<path fill="#231F20" d="M256.003,18.499C124.836,18.499,18.5,124.83,18.5,255.998c0,131.164,106.336,237.503,237.503,237.503
			c131.168,0,237.496-106.339,237.496-237.503C493.5,124.83,387.171,18.499,256.003,18.499z M366.535,297.758
			c0,10.148-8.262,18.413-18.414,18.413h-59.361l11.086,24.442c0.592,1.145,0.932,2.444,0.932,3.828
			c0,4.574-3.707,8.288-8.287,8.288c-0.004,0-0.01,0-0.018,0h-72.947c-2.812,0-5.436-1.438-6.965-3.803
			c-1.527-2.364-1.746-5.342-0.586-7.911l11.271-24.845h-59.365c-10.152,0-18.41-8.265-18.41-18.413V177.684
			c0-10.156,8.258-18.423,18.41-18.423h184.24c10.152,0,18.414,8.267,18.414,18.423V297.758z"/>
	</g>
</g>
</svg>
