<?xml version="1.0" encoding="utf-8"?>
<!-- Generator: Adobe Illustrator 15.0.2, SVG Export Plug-In . SVG Version: 6.00 Build 0)  -->
<!DOCTYPE svg PUBLIC "-//W3C//DTD SVG 1.1//EN" "http://www.w3.org/Graphics/SVG/1.1/DTD/svg11.dtd">
<svg version="1.1" id="Layer_1" xmlns="http://www.w3.org/2000/svg" xmlns:xlink="http://www.w3.org/1999/xlink" x="0px" y="0px"
	 width="512px" height="512px" viewBox="0 0 512 512" enable-background="new 0 0 512 512" xml:space="preserve">
<g>
	<path fill-rule="evenodd" clip-rule="evenodd" fill="#231F20" d="M482.942,144.906c0-9.669-3.86-18.458-9.935-25.146
		c-0.116-0.116-0.154-0.266-0.231-0.421c-0.111-0.115-0.267-0.149-0.382-0.271c-6.915-7.257-16.699-11.843-27.591-11.843H67.192
		c-10.887,0-20.671,4.586-27.625,11.843c-0.12,0.121-0.271,0.155-0.348,0.31c-0.116,0.116-0.154,0.266-0.222,0.421
		c-6.112,6.687-9.939,15.438-9.939,25.106v222.158c0,9.925,3.967,18.907,10.359,25.633c0.106,0.165,0.149,0.305,0.3,0.469
		c0.038,0.034,0.121,0.034,0.149,0.106c6.92,7.069,16.593,11.5,27.325,11.5h377.611c10.703,0,20.372-4.431,27.325-11.529
		c0.038-0.043,0.115-0.043,0.154-0.077c0.111-0.125,0.149-0.304,0.305-0.425c6.383-6.77,10.354-15.752,10.354-25.677V144.906z
		 M334.36,244.271l130.815-108.458c1.261,2.788,2.024,5.847,2.024,9.094v222.158c0,2.942-0.614,5.73-1.644,8.32L334.36,244.271z
		 M444.804,122.78c3.286,0,6.383,0.726,9.21,1.986L255.977,288.941L57.987,124.767c2.826-1.261,5.919-1.986,9.205-1.986H444.804z
		 M46.438,375.385c-1.062-2.59-1.681-5.378-1.681-8.32V144.906c0-3.247,0.777-6.306,2.067-9.094l130.82,108.458L46.438,375.385z
		 M67.192,389.219c-3.629,0-6.982-0.947-10.046-2.445l132.569-132.491l61.226,50.744c1.444,1.228,3.247,1.837,5.035,1.837
		c1.802,0,3.595-0.609,5.049-1.837l61.26-50.744l132.569,132.491c-3.054,1.498-6.422,2.445-10.051,2.445H67.192z M67.192,389.219"/>
</g>
</svg>
