<?xml version="1.0" encoding="utf-8"?>
<!-- Generator: Adobe Illustrator 15.0.2, SVG Export Plug-In . SVG Version: 6.00 Build 0)  -->
<!DOCTYPE svg PUBLIC "-//W3C//DTD SVG 1.1//EN" "http://www.w3.org/Graphics/SVG/1.1/DTD/svg11.dtd">
<svg version="1.1" id="Layer_1" xmlns="http://www.w3.org/2000/svg" xmlns:xlink="http://www.w3.org/1999/xlink" x="0px" y="0px"
	 width="512px" height="512px" viewBox="0 0 512 512" enable-background="new 0 0 512 512" xml:space="preserve">
<path fill="#414042" d="M256,18.5C124.818,18.5,18.5,124.828,18.5,256c0,131.172,106.318,237.5,237.5,237.5
	c131.145,0,237.5-106.328,237.5-237.5C493.5,124.828,387.145,18.5,256,18.5z M134.884,183.312c0.604-2.458,3.099-8.155,12.794-8.155
	H364.35c9.658,0,12.153,5.696,12.766,8.146c1.717,6.828-4.045,14.751-10.381,18.109l-96.03,51.609
	c-4.045,2.144-9.277,3.34-14.704,3.34c-5.428,0-10.642-1.196-14.705-3.34l-96.029-51.609
	C138.92,198.054,133.177,190.131,134.884,183.312z M377.802,317.982c0,8.989-10.065,18.86-19.278,18.86H153.448
	c-9.185,0-19.27-9.871-19.27-18.86v-93.934c0-1.271,0-2.922,0.566-4.639c1.771-5.334,7.236-7.533,13.999-4.008
	c7.116,3.729,94.323,49.328,98.665,51.582c3.163,1.67,5.037,1.828,8.591,1.828c3.441,0,5.427-0.158,8.572-1.818
	c4.369-2.264,91.576-47.862,98.664-51.582c6.865-3.563,12.256-1.336,14.009,3.998c0.557,1.744,0.557,3.377,0.557,4.583V317.982z"/>
</svg>
