<?xml version="1.0" encoding="utf-8"?>
<!-- Generator: Adobe Illustrator 15.0.2, SVG Export Plug-In . SVG Version: 6.00 Build 0)  -->
<!DOCTYPE svg PUBLIC "-//W3C//DTD SVG 1.1//EN" "http://www.w3.org/Graphics/SVG/1.1/DTD/svg11.dtd">
<svg version="1.1" id="Layer_1" xmlns="http://www.w3.org/2000/svg" xmlns:xlink="http://www.w3.org/1999/xlink" x="0px" y="0px"
	 width="512px" height="512px" viewBox="0 0 512 512" enable-background="new 0 0 512 512" xml:space="preserve">
<g>
	<g>
		<path fill="#414042" d="M438.623,193.64l46.973-46.973c2.026-2.026,3.165-4.769,3.165-7.631s-1.139-5.605-3.165-7.627
			L373.349,19.16c-4.214-4.213-11.04-4.213-15.254,0L336.07,41.186c-25.212-12.456-56.636-8.228-77.597,12.724l-49.147,49.151
			c-6.992-0.657-14.037-0.8-21.048-0.37l-34.375-34.374c-2.025-2.025-4.763-3.164-7.626-3.164c-2.868,0-5.606,1.138-7.632,3.164
			L26.397,180.555c-2.021,2.026-3.159,4.773-3.159,7.636c0,2.858,1.139,5.605,3.159,7.631l16.942,16.942l-6.698,67.342
			c-6.239,14.958-3.288,32.866,8.857,45.017c8.024,8.02,18.57,12.039,29.115,12.039c0.615,0,1.235-0.023,1.842-0.042
			c-0.028,0.615-0.043,1.23-0.043,1.859c0,10.994,4.279,21.335,12.063,29.12c7.774,7.775,18.116,12.058,29.11,12.058
			c0.624,0,1.244-0.023,1.859-0.051c-0.485,11.156,3.51,22.469,11.997,30.961c7.785,7.78,18.127,12.062,29.121,12.062
			c0.624,0,1.244-0.023,1.858-0.042c-0.495,11.147,3.507,22.464,11.998,30.952c8.028,8.029,18.574,12.044,29.12,12.044
			c7.636,0,15.286-2.123,21.969-6.336c0.157,0.171,0.31,0.351,0.472,0.518l23.423,23.422c8.204,8.214,18.991,12.312,29.767,12.312
			c10.777,0,21.562-4.098,29.769-12.312c7.955-7.946,12.335-18.52,12.335-29.768c0-0.754-0.023-1.499-0.061-2.239
			c0.735,0.042,1.489,0.064,2.234,0.064c11.248,0,21.82-4.379,29.768-12.335c7.954-7.946,12.335-18.523,12.335-29.768
			c0-0.758-0.022-1.512-0.064-2.267c0.749,0.047,1.493,0.07,2.242,0.07c10.781,0,21.563-4.103,29.763-12.312
			c7.956-7.951,12.336-18.524,12.336-29.768c0-0.754-0.019-1.499-0.064-2.243c0.745,0.037,1.498,0.069,2.242,0.069
			c11.245,0,21.817-4.385,29.772-12.335c7.951-7.951,12.331-18.523,12.331-29.772c0-11.244-4.38-21.817-12.331-29.763
			l-25.123-25.133c14.495-21.965,21.679-47.172,21.737-72.333C438.467,193.783,438.54,193.713,438.623,193.64L438.623,193.64z
			 M365.717,42.05l96.995,96.985l-27.15,27.145c-5.11-24.448-17.113-47.648-35.831-66.366L353.84,53.928L365.717,42.05z
			 M60.757,309.856c-7.641-7.636-7.641-20.068,0-27.709l16.333-16.332c3.704-3.695,8.625-5.735,13.856-5.735
			c5.236,0,10.161,2.035,13.857,5.735c3.7,3.705,5.739,8.626,5.739,13.857c0,5.235-2.039,10.161-5.739,13.862l-16.327,16.322
			C80.83,317.501,68.398,317.501,60.757,309.856L60.757,309.856z M117.587,358.578c-5.231,0-10.152-2.04-13.853-5.74
			c-3.704-3.705-5.744-8.63-5.744-13.857c0-5.231,2.04-10.147,5.735-13.848l0.009-0.019l31.118-31.118
			c3.695-3.695,8.625-5.739,13.856-5.739s10.153,2.044,13.857,5.739c7.641,7.637,7.641,20.073,0.01,27.71l-7.113,7.113
			l-24.02,24.009C127.748,356.538,122.827,358.578,117.587,358.578L117.587,358.578z M160.564,401.545
			c-5.231,0-10.153-2.04-13.857-5.74c-7.637-7.641-7.637-20.073,0-27.714l31.122-31.123c0.01,0,0.01-0.004,0.015-0.013
			l13.066-13.062c3.694-3.7,8.616-5.74,13.847-5.74c5.24,0,10.162,2.04,13.867,5.74c3.694,3.696,5.734,8.622,5.734,13.862
			c0,5.227-2.034,10.147-5.744,13.853l-13.07,13.08l-31.123,31.118C170.716,399.505,165.794,401.545,160.564,401.545
			L160.564,401.545z M189.684,438.778c-7.646-7.637-7.646-20.073,0-27.709l31.123-31.123c7.637-7.641,20.073-7.641,27.71,0
			c7.641,7.641,7.641,20.073,0,27.718l-31.124,31.123C209.758,446.418,197.325,446.423,189.684,438.778L189.684,438.778z
			 M432.522,321.081c0,5.486-2.141,10.633-6.008,14.509c-3.876,3.876-9.033,6.017-14.51,6.017c-5.48,0-10.638-2.141-14.514-6.017
			l-6.16-6.166c-4.218-4.213-11.044-4.213-15.258,0c-4.214,4.218-4.214,11.055,0,15.258l6.165,6.166
			c3.876,3.876,6.008,9.028,6.008,14.509c0,5.49-2.132,10.633-6.008,14.509c-8.002,8.006-21.021,8.006-29.022,0l-6.166-6.161
			c-4.213-4.218-11.04-4.218-15.253,0c-4.215,4.213-4.215,11.045,0,15.259l6.165,6.161c3.876,3.875,6.004,9.033,6.004,14.509
			c0,5.481-2.128,10.638-6.004,14.514c-8.001,8.001-21.018,8.001-29.015,0.009l-0.008-0.009c0,0,0-0.01-0.01-0.01l-6.156-6.156
			c-4.204-4.213-11.04-4.213-15.253,0c-4.219,4.218-4.219,11.05,0,15.253l6.16,6.166c3.876,3.876,6.008,9.033,6.008,14.514
			c0,5.476-2.132,10.633-6.008,14.509c-7.997,8.001-21.017,8.001-29.018,0l-23.201-23.195l22.316-22.316
			c16.055-16.054,16.055-42.182-0.004-58.231c-5.93-5.939-13.256-9.671-20.925-11.216c2.026-4.922,3.094-10.236,3.094-15.721
			c0-10.999-4.281-21.336-12.058-29.11c-7.783-7.785-18.12-12.067-29.119-12.067c-5.48,0-10.801,1.068-15.717,3.094
			c-1.55-7.668-5.282-14.985-11.221-20.924c-7.778-7.779-18.116-12.067-29.12-12.067c-6.188,0-12.163,1.355-17.594,3.931
			c-1.688-7.534-5.458-14.458-11.05-20.05c-7.774-7.775-18.116-12.058-29.119-12.058c-10.999,0-21.337,4.283-29.111,12.058
			l-0.633,0.634l4.116-41.377c0.323-3.219-0.819-6.41-3.108-8.695l-12.923-12.923l96.984-96.995l30.271,30.272
			c2.123,2.119,4.973,3.261,8.044,3.145c0.287-0.009,0.573-0.027,0.86-0.069c7.534-0.727,15.143-0.708,22.668,0.055l-6.697,68.744
			c-1.138,11.623,2.326,22.987,9.74,31.997c7.419,9.015,17.904,14.602,29.522,15.73c1.425,0.135,2.84,0.204,4.246,0.204
			c22.205,0,41.261-16.923,43.448-39.471l2.946-30.419l135.193,135.184C430.382,310.457,432.522,315.6,432.522,321.081
			L432.522,321.081z M401.017,250.562l-104.82-104.82c-0.675-0.685-1.429-1.235-2.22-1.702l2.054-21.248
			c0.582-5.929-3.765-11.207-9.694-11.775c-5.939-0.583-11.207,3.76-11.785,9.699l-7.654,79.007
			c-1.18,12.132-12.012,21.049-24.139,19.875c-5.874-0.569-11.184-3.399-14.94-7.96c-3.745-4.565-5.499-10.314-4.93-16.192
			l8.154-83.582l42.69-42.686c17.871-17.885,46.963-17.885,64.84,0l45.891,45.896C420.72,151.324,426.945,207.599,401.017,250.562
			L401.017,250.562z M401.017,250.562"/>
	</g>
</g>
</svg>
