<?xml version="1.0" encoding="utf-8"?>
<!-- Generator: Adobe Illustrator 15.0.2, SVG Export Plug-In . SVG Version: 6.00 Build 0)  -->
<!DOCTYPE svg PUBLIC "-//W3C//DTD SVG 1.1//EN" "http://www.w3.org/Graphics/SVG/1.1/DTD/svg11.dtd">
<svg version="1.1" id="Layer_1" xmlns="http://www.w3.org/2000/svg" xmlns:xlink="http://www.w3.org/1999/xlink" x="0px" y="0px"
	 width="512px" height="512px" viewBox="0 0 512 512" enable-background="new 0 0 512 512" xml:space="preserve">
<g>
	<path fill="#414042" d="M195.371,63.271c1.669-2.197,4.737-2.417,6.935-0.711l101.983,79.531c0.524,0.421,0.824,1.062,1.158,1.566
		c7.826,5.859,12.69,16.369,12.163,27.861c-0.795,17.084-13.481,30.148-28.372,29.213c-14.891-0.932-26.262-15.568-25.468-32.669
		c0.665-14.27,10.2-26.469,21.301-28.696l-88.692-69.191C194.173,68.453,193.668,65.428,195.371,63.271z"/>
	<path fill="#414042" d="M118.562,309.366c-7.362,0.277-15.288-0.154-23.2-1.6c-7.879-1.452-15.799-3.936-22.683-7.742
		c-3.449-1.886-6.658-4.066-9.405-6.51c-2.774-2.414-5.105-5.075-6.884-7.766c-1.776-2.681-3.095-5.295-3.923-7.719
		c-0.788-2.44-1.322-4.534-1.459-6.311c-0.141-0.885-0.337-1.536-0.361-2.22c-0.017-0.451-0.167-0.758-0.284-1.035
		c-0.023-0.037-0.077-0.063-0.087-0.087c-0.504-0.798-0.774-1.208-0.774-1.208s0.805-0.063,0.741,0.875
		c-0.014,0.15,0.063,0.284,0.12,0.421c0.544,0.725,2.03,1.312,2.938,2.598c0.961,1.325,3.065,2.297,4.537,3.846
		c1.493,1.566,3.279,3.172,5.329,4.668c2.037,1.485,8.39,5.953,10.984,7.198c5.993,2.854,18.767,8.881,47.576,12.136
		c10.841,1.195,21.962-1.723,21.962-1.723s0.4,0.063,0.607,0.1c0,0-107.375-90.328-112.444-94.699
		c-9.021-7.225-14.423-19.711-13.174-33.363c1.803-20.35,17.565-35.544,35.189-33.951c17.622,1.576,30.429,19.324,28.613,39.664
		c-1.529,16.981-13.028,30.672-26.669,33.411l101.729,85.213c2.527,2.104,3.045,5.649,0.941,8.17
		c-1.779,2.14-10.029,4.431-16.974,5.743C135.752,308.574,125.9,309.099,118.562,309.366z"/>
	<path fill="#414042" d="M343.643,293.948l-1.019,5.472l-2.641,13.929l-2.354,12.483l-18.192,96.165
		c-0.104,0.657-0.621,1.205-0.925,1.726c-1.622,9.709-8.947,18.911-19.665,23.702c-15.905,7.128-33.653,1.739-39.851-12.063
		c-6.159-13.789,1.987-30.712,17.912-37.811c13.275-5.953,27.334-3.282,36.575,6.05l14.944-78.876l-101.729-19.234l-18.062,95.537
		c-0.134,0.668-0.581,1.215-0.898,1.739c-1.612,9.739-8.911,18.921-19.618,23.722c-15.905,7.115-33.688,1.736-39.874-12.056
		c-6.156-13.792,1.977-30.699,17.899-37.831c13.274-5.943,27.287-3.272,36.521,6.03l15.048-79.481l2.356-12.467l2.635-13.936
		l1.035-5.489l1.315-6.951l119.912,22.676L343.643,293.948z"/>
	<path fill="#414042" d="M493.016,257.709c-2.171,10.376-11.222,17.248-20.229,15.345c-8.991-1.88-14.463-11.889-12.27-22.279
		c1.822-8.674,8.707-15.167,15.926-15.722l-33.494-35.584l-45.87,43.199l40.571,43.109c0.277,0.277,0.511,0.587,0.648,0.932
		c4.223,4.3,6.263,11.038,4.784,18.042c-2.19,10.377-11.241,17.238-20.232,15.345c-9.015-1.89-14.5-11.893-12.297-22.282
		c1.823-8.661,8.701-15.148,15.926-15.715l-33.777-35.854l-13.552-14.367l-2.945-3.155l54.091-50.925l2.944,3.138l13.552,14.376
		l40.842,43.4c0.287,0.287,0.491,0.631,0.638,0.968C492.481,243.941,494.498,250.731,493.016,257.709z"/>
</g>
</svg>
