<?xml version="1.0" encoding="utf-8"?>
<!-- Generator: Adobe Illustrator 15.0.2, SVG Export Plug-In . SVG Version: 6.00 Build 0)  -->
<!DOCTYPE svg PUBLIC "-//W3C//DTD SVG 1.1//EN" "http://www.w3.org/Graphics/SVG/1.1/DTD/svg11.dtd">
<svg version="1.1" id="Layer_1" xmlns="http://www.w3.org/2000/svg" xmlns:xlink="http://www.w3.org/1999/xlink" x="0px" y="0px"
	 width="512px" height="512px" viewBox="0 0 512 512" enable-background="new 0 0 512 512" xml:space="preserve">
<path fill="#414042" d="M256,18.498c-131.169,0-237.5,106.331-237.5,237.5c0,131.173,106.331,237.504,237.5,237.504
	s237.5-106.331,237.5-237.504C493.5,124.829,387.169,18.498,256,18.498z M216.716,119.786c1.084-1.427,3.076-1.565,4.498-0.458
	l66.078,51.528c0.335,0.269,0.535,0.689,0.75,1.011c5.067,3.802,8.219,10.614,7.877,18.057
	c-0.511,11.068-8.729,19.533-18.379,18.934c-9.649-0.612-17.016-10.095-16.5-21.175c0.426-9.241,6.604-17.149,13.797-18.59
	l-57.467-44.831C215.938,123.146,215.617,121.185,216.716,119.786z M166.948,279.235c-4.768,0.186-9.901-0.095-15.029-1.034
	c-5.102-0.941-10.234-2.547-14.693-5.016c-2.238-1.224-4.318-2.633-6.098-4.217c-1.793-1.569-3.305-3.296-4.459-5.032
	c-1.152-1.738-2.006-3.434-2.536-5.003c-0.515-1.578-0.862-2.936-0.953-4.086c-0.085-0.572-0.218-0.998-0.231-1.437
	c-0.016-0.3-0.111-0.493-0.186-0.673c-0.016-0.023-0.045-0.043-0.053-0.057c-0.332-0.516-0.507-0.782-0.507-0.782
	s0.522-0.046,0.483,0.564c-0.008,0.097,0.039,0.182,0.076,0.274c0.354,0.466,1.314,0.849,1.906,1.68
	c0.616,0.857,1.986,1.487,2.938,2.494c0.97,1.012,2.122,2.054,3.452,3.022c1.321,0.965,5.439,3.86,7.119,4.663
	c3.883,1.853,12.154,5.754,30.824,7.865c7.022,0.775,14.23-1.115,14.23-1.115s0.257,0.038,0.391,0.062
	c0,0-69.566-58.525-72.854-61.358c-5.844-4.677-9.346-12.769-8.535-21.615c1.168-13.182,11.38-23.026,22.797-22
	c11.424,1.026,19.717,12.524,18.537,25.706c-0.988,11.003-8.436,19.875-17.275,21.643l65.916,55.214
	c1.633,1.365,1.972,3.66,0.605,5.294c-1.156,1.384-6.495,2.867-10.992,3.722C178.09,278.725,171.708,279.067,166.948,279.235z
	 M312.791,269.244l-0.666,3.549l-1.71,9.029l-1.521,8.082l-11.786,62.307c-0.069,0.426-0.401,0.785-0.604,1.126
	c-1.05,6.289-5.793,12.244-12.735,15.354c-10.311,4.617-21.809,1.127-25.822-7.816c-3.993-8.934,1.289-19.896,11.605-24.498
	c8.604-3.855,17.712-2.127,23.696,3.921l9.679-51.109l-65.913-12.464l-11.701,61.904c-0.084,0.432-0.373,0.785-0.576,1.126
	c-1.049,6.309-5.781,12.261-12.717,15.366c-10.303,4.613-21.827,1.131-25.832-7.809c-3.99-8.937,1.278-19.893,11.596-24.51
	c8.604-3.852,17.682-2.123,23.662,3.909l9.75-51.5l1.525-8.081l1.711-9.031l0.668-3.556l0.855-4.505l77.694,14.701L312.791,269.244z
	 M409.573,245.769c-1.411,6.724-7.273,11.179-13.108,9.945c-5.825-1.224-9.373-7.704-7.95-14.44
	c1.184-5.62,5.644-9.825,10.318-10.186l-21.706-23.049l-29.72,27.984l26.292,27.932c0.184,0.182,0.329,0.381,0.422,0.604
	c2.729,2.783,4.052,7.15,3.095,11.691c-1.419,6.723-7.279,11.166-13.108,9.941c-5.835-1.229-9.391-7.708-7.964-14.438
	c1.184-5.607,5.635-9.812,10.315-10.182l-21.881-23.231l-8.783-9.31l-1.906-2.046l35.043-32.995l1.906,2.038l8.785,9.314
	l26.459,28.113c0.184,0.188,0.316,0.41,0.415,0.629C409.228,236.85,410.53,241.248,409.573,245.769z"/>
</svg>
