<?xml version="1.0" encoding="utf-8"?>
<!-- Generator: Adobe Illustrator 15.0.2, SVG Export Plug-In . SVG Version: 6.00 Build 0)  -->
<!DOCTYPE svg PUBLIC "-//W3C//DTD SVG 1.1//EN" "http://www.w3.org/Graphics/SVG/1.1/DTD/svg11.dtd">
<svg version="1.1" id="Layer_1" xmlns="http://www.w3.org/2000/svg" xmlns:xlink="http://www.w3.org/1999/xlink" x="0px" y="0px"
	 width="512px" height="512px" viewBox="0 0 512 512" enable-background="new 0 0 512 512" xml:space="preserve">
<path fill="#414042" d="M256,18.5C124.828,18.5,18.5,124.828,18.5,256c0,131.173,106.328,237.5,237.5,237.5
	c131.173,0,237.5-106.327,237.5-237.5C493.5,124.828,387.173,18.5,256,18.5z M303.537,303.463
	c-43.372,43.363-85.231,58.764-107.896,58.764c-10.112,0-18.313-2.82-23.648-8.164c-1.15-1.15-2.394-2.32-3.655-3.525
	c-8.043-7.654-19.074-18.138-18.471-32.471c0.417-9.834,6.067-19.01,17.247-28.009c12.673-10.177,22.924-14.937,32.229-14.937
	c12.218,0,19.965,7.877,26.839,14.834l1.29,1.299c2.542-0.463,12.209-3.748,36.172-27.702
	c24.074-24.065,27.247-33.714,27.692-36.135l-1.289-1.253c-14.473-14.277-24.455-28.574,0.093-59.124
	c9.333-11.606,18.843-17.266,29.085-17.266c13.776,0,23.508,10.261,31.357,18.499c1.205,1.271,2.375,2.505,3.525,3.637
	C373.646,191.477,357.968,248.986,303.537,303.463z"/>
</svg>
