<?xml version="1.0" encoding="utf-8"?>
<!-- Generator: Adobe Illustrator 15.0.2, SVG Export Plug-In . SVG Version: 6.00 Build 0)  -->
<!DOCTYPE svg PUBLIC "-//W3C//DTD SVG 1.1//EN" "http://www.w3.org/Graphics/SVG/1.1/DTD/svg11.dtd">
<svg version="1.1" id="Layer_1" xmlns="http://www.w3.org/2000/svg" xmlns:xlink="http://www.w3.org/1999/xlink" x="0px" y="0px"
	 width="511.999px" height="512px" viewBox="0 0 511.999 512" enable-background="new 0 0 511.999 512" xml:space="preserve">
<g>
	<g>
		<path fill="#414042" d="M255.999,18.5c-131.167,0-237.498,106.331-237.498,237.498c0,131.172,106.331,237.502,237.498,237.502
			c131.172,0,237.498-106.33,237.498-237.502C493.497,124.831,387.171,18.5,255.999,18.5z M185.996,178.011
			c0-1.123,0.969-1.999,2.246-1.999h15.523c1.276,0,2.247,0.876,2.247,1.999v6.009c0,1.119-0.971,2.002-2.247,2.002h-15.523
			c-1.277,0-2.246-0.931-2.246-2.002V178.011z M365.981,315.967c0,20.021-20.008,20.021-20.008,20.021H166.039
			c0,0-20.025,0-20.025-20.021v-99.98c0-19.957,20.025-19.957,20.025-19.957h49.988l9.941-20.017h70.011l10.01,20.017h39.984
			c0,0,20.008,0,20.008,19.957V315.967z"/>
		<path fill="#414042" d="M315.995,215.986c-5.517,0-10.006,4.499-10.006,10.01c0,5.518,4.489,10.014,10.006,10.014
			c5.514,0,9.957-4.497,9.957-10.014C325.952,220.485,321.509,215.986,315.995,215.986z"/>
		<path fill="#414042" d="M260.974,215.986c-24.845,0-44.946,20.161-44.946,45.012c0,24.853,20.102,44.955,44.946,44.955
			c24.849,0,45.016-20.102,45.016-44.955C305.989,236.147,285.822,215.986,260.974,215.986z M260.974,298.679
			c-20.778,0-37.681-16.899-37.681-37.681c0-20.77,16.902-37.675,37.681-37.675c20.782,0,37.689,16.905,37.689,37.675
			C298.663,281.78,281.756,298.679,260.974,298.679z"/>
	</g>
</g>
</svg>
