<?xml version="1.0" encoding="utf-8"?>
<!-- Generator: Adobe Illustrator 15.0.2, SVG Export Plug-In . SVG Version: 6.00 Build 0)  -->
<!DOCTYPE svg PUBLIC "-//W3C//DTD SVG 1.1//EN" "http://www.w3.org/Graphics/SVG/1.1/DTD/svg11.dtd">
<svg version="1.1" id="Layer_1" xmlns="http://www.w3.org/2000/svg" xmlns:xlink="http://www.w3.org/1999/xlink" x="0px" y="0px"
	 width="512px" height="512px" viewBox="0 0 512 512" enable-background="new 0 0 512 512" xml:space="preserve">
<g>
	<g>
		<path fill="#414042" d="M359.645,371.544l111.201,111.203c1.648,1.648,3.797,2.469,5.957,2.469c2.156,0,4.303-0.82,5.951-2.469
			c3.289-3.279,3.289-8.605,0-11.895L371.551,359.642c33.803-36.727,52.328-84.085,52.328-134.305
			c0-53.038-20.648-102.897-58.156-140.401c-37.496-37.504-87.355-58.152-140.38-58.152c-53.043,0-102.897,20.656-140.401,58.152
			C47.433,122.439,26.78,172.299,26.78,225.337c0,53.037,20.652,102.893,58.161,140.393c37.491,37.508,87.354,58.152,140.401,58.152
			C275.552,423.882,322.917,405.355,359.645,371.544L359.645,371.544z M43.611,225.337c0-100.196,81.522-181.723,181.731-181.723
			c100.187,0,181.704,81.526,181.704,181.723c0,70.782-40.691,132.243-99.904,162.219v-90.355c0-31.194-25.373-56.572-56.571-56.572
			h-50.484c-31.193,0-56.571,25.378-56.571,56.572v90.355C84.298,357.572,43.611,296.119,43.611,225.337L43.611,225.337z
			 M160.354,297.201c0-21.909,17.812-39.741,39.724-39.741h50.493c21.912,0,39.736,17.832,39.736,39.741v97.828
			c-20.179,7.756-42.086,12.021-64.965,12.021c-22.901,0-44.805-4.266-64.988-12.021V297.201z M160.354,297.201"/>
	</g>
	<path fill="#414042" d="M225.131,232.573c32.077,0,58.169-26.092,58.169-58.17c0-32.081-26.104-58.182-58.169-58.182
		c-32.082,0-58.17,26.101-58.17,58.182C166.953,206.481,193.049,232.573,225.131,232.573L225.131,232.573z M225.131,133.053
		c22.79,0,41.334,18.551,41.334,41.35c0,22.795-18.544,41.334-41.334,41.334c-22.796,0-41.334-18.539-41.334-41.334
		C183.788,151.604,202.335,133.053,225.131,133.053L225.131,133.053z M225.131,133.053"/>
</g>
</svg>
