<?xml version="1.0" encoding="utf-8"?>
<!-- Generator: Adobe Illustrator 15.0.2, SVG Export Plug-In . SVG Version: 6.00 Build 0)  -->
<!DOCTYPE svg PUBLIC "-//W3C//DTD SVG 1.1//EN" "http://www.w3.org/Graphics/SVG/1.1/DTD/svg11.dtd">
<svg version="1.1" id="Layer_1" xmlns="http://www.w3.org/2000/svg" xmlns:xlink="http://www.w3.org/1999/xlink" x="0px" y="0px"
	 width="512px" height="512px" viewBox="0 0 512 512" enable-background="new 0 0 512 512" xml:space="preserve">
<g>
	<path fill="#414042" d="M398.733,119.324c10.618-13.262,15.435-29.867,13.56-46.761c-1.882-16.908-10.239-32.074-23.407-42.596
		l-0.986-0.816c-11.23-8.995-25.334-13.95-39.703-13.95c-19.47,0-37.607,8.721-49.756,23.926l-19.209,24.059l100.23,80.254
		L398.733,119.324z M303.676,60.46l8.364-10.468c8.827-11.046,22.007-17.384,36.156-17.384c10.584,0,20.545,3.504,28.705,10.035
		l0.991,0.821c9.661,7.72,15.735,18.739,17.101,31.023c1.36,12.268-2.136,24.328-9.854,33.963l-8.397,10.511L303.676,60.46z"/>
	<path fill="#414042" d="M345.396,184.534l2.295,1.833l-59.501,74.378c-4.244,5.23-6.165,11.831-5.423,18.56
		c0.714,6.626,4.006,12.625,9.315,16.931c4.465,3.563,10.063,5.527,15.764,5.527c7.706,0,14.879-3.448,19.679-9.454l95.034-118.87
		c4.295-5.352,6.193-12.049,5.349-18.857c-0.844-6.805-4.323-12.84-9.803-16.988c-4.346-3.295-9.553-5.034-15.049-5.034
		c-7.843,0-15.169,3.513-20.109,9.655l-3.831,4.788l-1.501-1.201l0.045-0.043L276.688,64.814L44.252,355.355l100.23,80.257
		L345.396,184.534z M68.719,352.641L279.396,89.293l72.222,57.9l-0.057,0.06l30.264,24.218l14.698-18.358
		c1.581-1.969,4.022-3.145,6.533-3.145c1.167,0,2.9,0.261,4.538,1.504c1.7,1.283,2.776,3.15,3.037,5.252
		c0.261,2.105-0.322,4.176-1.66,5.839l-95.046,118.881c-1.479,1.85-3.694,2.912-6.079,2.912c-1.253,0-3.117-0.3-4.851-1.68
		c-1.666-1.352-2.703-3.213-2.924-5.261c-0.232-2.091,0.352-4.117,1.672-5.751l70.414-88.017l-29.481-23.574L141.773,411.139
		L68.719,352.641z"/>
	<path fill="#414042" d="M124.854,449.763c0.481-0.215,1.354-0.604,2.481-1.133l3.593-1.632l-0.028-0.116
		c0.646-0.332,1.309-0.68,1.989-1.048l11.502-6.252L42.399,357.882l-3.644,12.48c-1.434,4.907-2.17,9.225-2.165,9.225
		c0,0,0-0.003,0-0.005L17.887,469.17c-1.025,4.969,0.216,10.061,3.4,13.973c3.218,3.944,7.943,6.205,12.97,6.208c0,0,0,0,0.006,0
		c2.419,0,4.782-0.524,6.969-1.539l83.317-37.913L124.854,449.763z M110.983,436.949l-75.792,34.488l17.355-83.124l59.842,47.934
		l-1.416,0.629L110.983,436.949z"/>
	<path fill="#414042" d="M494.119,460.778c-1.332-5.173-5.842-8.556-11.531-8.556c-0.714,0-1.383,0.051-2.102,0.153l-125.894,16.296
		c-6.454,0.815-10.964-6.256-7.479-11.786c1.898-2.918,3.746-5.893,5.587-8.862c4.867-7.893-1.644-18.393-10.658-18.393
		c-0.612,0-1.229,0.045-1.893,0.147L175.154,454.58l-19.725,2.975l-53.807,8.091c-6.092,0.924-10.193,6.103-9.678,12.296
		c0.198,2.771,1.331,5.383,3.122,7.332c2.102,2.307,5.025,3.587,8.198,3.587c0.618,0,1.23-0.051,1.893-0.153l196.659-29.567
		c6.709-1.02,11.327,6.562,7.383,12.092c-1.286,1.746-2.566,3.536-3.847,5.281c-3.536,4.816-2.715,12.856,1.382,17.01
		c2.103,2.147,4.766,3.275,7.582,3.275c0.312,0,0.668,0,0.979-0.045h0.103l169.75-21.628h0.107c2.918-0.459,5.479-2.147,7.174-4.765
		C494.271,467.493,494.94,463.957,494.119,460.778z"/>
</g>
</svg>
