<?xml version="1.0" encoding="utf-8"?>
<!-- Generator: Adobe Illustrator 15.0.2, SVG Export Plug-In . SVG Version: 6.00 Build 0)  -->
<!DOCTYPE svg PUBLIC "-//W3C//DTD SVG 1.1//EN" "http://www.w3.org/Graphics/SVG/1.1/DTD/svg11.dtd">
<svg version="1.1" id="Layer_1" xmlns="http://www.w3.org/2000/svg" xmlns:xlink="http://www.w3.org/1999/xlink" x="0px" y="0px"
	 width="512px" height="512px" viewBox="0 0 512 512" enable-background="new 0 0 512 512" xml:space="preserve">
<g>
	<g>
		<path fill="#414042" d="M338.145,226.188c2.889,0,4.266-2.287,4.266-6.851v-20.771c0-4.562-1.377-6.846-4.266-6.846
			c-2.883,0-4.27,2.283-4.27,6.846v20.771C333.875,223.901,335.262,226.188,338.145,226.188z"/>
		<path fill="#414042" d="M256.006,18.5c-131.172,0-237.508,106.331-237.508,237.496c0,131.177,106.336,237.503,237.508,237.503
			c131.166,0,237.496-106.327,237.496-237.503C493.502,124.831,387.172,18.5,256.006,18.5z M230.386,236.312
			c0.033,1.297,0.077,2.599,0.077,3.899c0,39.811-30.286,85.699-85.701,85.699c-17.014,0-32.855-4.994-46.176-13.533
			c2.352,0.282,4.743,0.428,7.176,0.428c14.117,0,27.111-4.807,37.418-12.893c-13.182-0.247-24.311-8.955-28.141-20.925
			c1.84,0.354,3.736,0.553,5.67,0.553c2.746,0,5.409-0.385,7.932-1.067c-13.781-2.761-24.161-14.944-24.161-29.536v-0.381
			c4.067,2.254,8.71,3.613,13.644,3.771c-8.068-5.393-13.402-14.625-13.402-25.072c0-5.519,1.491-10.689,4.082-15.145
			c14.867,18.233,37.049,30.222,62.093,31.467c-0.515-2.198-0.791-4.493-0.791-6.857c0-16.63,13.497-30.12,30.122-30.12
			c8.664,0,16.504,3.656,21.998,9.511c6.865-1.354,13.314-3.852,19.125-7.317c-2.246,7.043-7.025,12.941-13.245,16.667
			c6.089-0.729,11.896-2.35,17.3-4.74C241.357,226.768,236.254,232.07,230.386,236.312z M358.721,184.27h8.918v36.343
			c0,2.1,0,3.191,0.111,3.483c0.191,1.387,0.893,2.092,2.092,2.092c1.787,0,3.666-1.387,5.648-4.191V184.27h8.951v49.367h-8.951
			v-5.389c-3.557,4.083-6.949,6.07-10.213,6.07c-2.887,0-4.881-1.165-5.762-3.674c-0.498-1.484-0.795-3.86-0.795-7.334V184.27z
			 M324.924,200.358c0-5.278,0.896-9.123,2.809-11.625c2.463-3.37,5.953-5.067,10.412-5.067c4.492,0,7.955,1.697,10.438,5.067
			c1.885,2.502,2.785,6.346,2.785,11.625v17.304c0,5.243-0.9,9.122-2.785,11.608c-2.482,3.365-5.945,5.048-10.438,5.048
			c-4.459,0-7.949-1.683-10.412-5.048c-1.912-2.486-2.809-6.366-2.809-11.608V200.358z M301.01,167.398l7.035,26.01l6.775-26.01
			h10.029l-11.943,39.406v26.833h-9.916v-26.833c-0.896-4.752-2.879-11.725-6.055-20.95c-2.096-6.159-4.281-12.317-6.373-18.456
			H301.01z M410.848,328.174c-1.779,7.792-8.16,13.541-15.818,14.397c-18.164,2.026-36.555,2.038-54.857,2.026
			c-18.299,0.012-36.686,0-54.846-2.026c-7.678-0.856-14.047-6.605-15.83-14.397c-2.547-11.089-2.547-23.203-2.547-34.628
			c0-11.427,0.021-23.514,2.574-34.625c1.787-7.785,8.158-13.527,15.83-14.385c18.164-2.036,36.551-2.036,54.848-2.036
			c18.305,0,36.68,0,54.859,2.036c7.668,0.858,14.041,6.601,15.809,14.385c2.562,11.111,2.551,23.198,2.551,34.625
			C413.42,304.971,413.412,317.084,410.848,328.174z"/>
		<path fill="#414042" d="M361.127,275.79c-3.256,0-6.277,1.788-9.145,5.3v-21.408h-8.859v65.56h8.859v-4.732
			c2.951,3.653,5.996,5.401,9.145,5.401c3.518,0,5.893-1.849,7.086-5.494c0.576-2.06,0.883-5.316,0.883-9.825v-19.468
			c0-4.617-0.307-7.857-0.883-9.819C367.02,277.639,364.645,275.79,361.127,275.79z M360.25,311.275
			c0,4.426-1.299,6.589-3.855,6.589c-1.461,0-2.928-0.687-4.412-2.163v-29.791c1.484-1.452,2.951-2.149,4.412-2.149
			c2.557,0,3.855,2.262,3.855,6.666V311.275z"/>
		<polygon fill="#414042" points="277.848,268.913 288.268,268.913 288.268,325.242 298.119,325.242 298.119,268.913 
			308.73,268.913 308.73,259.682 277.848,259.682 		"/>
		<path fill="#414042" d="M326.613,313.724c-1.957,2.769-3.822,4.14-5.605,4.14c-1.176,0-1.854-0.687-2.072-2.064
			c-0.076-0.288-0.076-1.379-0.076-3.447v-35.971h-8.85v38.639c0,3.455,0.301,5.777,0.781,7.261
			c0.883,2.479,2.848,3.629,5.707,3.629c3.26,0,6.598-1.961,10.115-5.993v5.324h8.852v-48.86h-8.852V313.724z"/>
		<path fill="#414042" d="M389.316,275.79c-4.514,0-8.039,1.661-10.586,5.008c-1.885,2.469-2.75,6.287-2.75,11.518v17.11
			c0,5.186,0.965,9.049,2.848,11.479c2.557,3.34,6.08,5.006,10.727,5.006c4.617,0,8.242-1.748,10.691-5.294
			c1.072-1.557,1.771-3.351,2.057-5.308c0.092-0.888,0.199-2.854,0.199-5.701v-1.284h-9.029c0,3.552-0.111,5.505-0.195,5.993
			c-0.506,2.36-1.777,3.548-3.961,3.548c-3.029,0-4.514-2.248-4.514-6.772v-8.665h17.699v-10.111c0-5.231-0.885-9.049-2.742-11.518
			C397.277,277.451,393.76,275.79,389.316,275.79z M393.658,295.057h-8.855v-4.513c0-4.521,1.484-6.782,4.432-6.782
			c2.941,0,4.424,2.262,4.424,6.782V295.057z"/>
	</g>
</g>
</svg>
