<?xml version="1.0" encoding="utf-8"?>
<!-- Generator: Adobe Illustrator 15.0.2, SVG Export Plug-In . SVG Version: 6.00 Build 0)  -->
<!DOCTYPE svg PUBLIC "-//W3C//DTD SVG 1.1//EN" "http://www.w3.org/Graphics/SVG/1.1/DTD/svg11.dtd">
<svg version="1.1" id="Layer_1" xmlns="http://www.w3.org/2000/svg" xmlns:xlink="http://www.w3.org/1999/xlink" x="0px" y="0px"
	 width="512px" height="512px" viewBox="0 0 512 512" enable-background="new 0 0 512 512" xml:space="preserve">
<g>
	<path fill="#414042" d="M233.895,184.786c-8.768,5.225-18.496,8.998-28.856,11.031c-8.283-8.824-20.115-14.343-33.187-14.343
		c-25.083,0-45.442,20.349-45.442,45.442c0,3.566,0.411,7.024,1.186,10.343c-37.781-1.879-71.251-19.965-93.677-47.473
		c-3.906,6.717-6.157,14.52-6.157,22.85c0,15.755,8.05,29.694,20.216,37.827c-7.438-0.237-14.44-2.291-20.58-5.692v0.581
		c0,22.012,15.665,40.388,36.452,44.554c-3.806,1.032-7.826,1.616-11.962,1.616c-2.921,0-5.779-0.304-8.563-0.838
		c5.779,18.062,22.569,31.197,42.461,31.564c-15.538,12.207-35.149,19.458-56.45,19.458c-3.673,0-7.282-0.217-10.834-0.641
		c20.109,12.884,44.004,20.416,69.678,20.416c83.607,0,129.296-69.237,129.296-129.307c0-1.96-0.066-3.92-0.12-5.88
		c8.854-6.396,16.561-14.396,22.656-23.518c-8.152,3.603-16.903,6.053-26.088,7.151C223.298,204.307,230.516,195.41,233.895,184.786
		z"/>
	<path fill="#414042" d="M420.88,223.291c4.912,0,10.033-2.995,15.398-9.158v8.133h13.512V147.79h-13.512v56.911
		c-2.992,4.233-5.812,6.323-8.521,6.323c-1.809,0-2.863-1.058-3.158-3.155c-0.16-0.444-0.16-2.087-0.16-5.255V147.79h-13.461v58.884
		c0,5.251,0.443,8.831,1.201,11.071C413.515,221.531,416.517,223.291,420.88,223.291z"/>
	<path fill="#414042" d="M379.949,223.291c6.764,0,11.988-2.537,15.734-7.619c2.846-3.746,4.201-9.602,4.201-17.515v-26.102
		c0-7.963-1.355-13.766-4.201-17.542c-3.746-5.088-8.971-7.643-15.734-7.643c-6.73,0-12,2.554-15.719,7.643
		c-2.885,3.776-4.236,9.579-4.236,17.542v26.102c0,7.913,1.352,13.769,4.236,17.515
		C367.949,220.753,373.218,223.291,379.949,223.291z M373.488,169.351c0-6.884,2.104-10.326,6.461-10.326
		c4.34,0,6.416,3.442,6.416,10.326v31.337c0,6.888-2.076,10.336-6.416,10.336c-4.357,0-6.461-3.449-6.461-10.336V169.351z"/>
	<path fill="#414042" d="M326.894,181.774v40.492h14.963v-40.492l18.016-59.449h-15.131l-10.213,39.236l-10.621-39.236h-15.762
		c3.166,9.265,6.455,18.557,9.627,27.841C322.55,164.093,325.548,174.613,326.894,181.774z"/>
	<path fill="#414042" d="M407.462,297.89c-2.197,0-4.41,1.055-6.645,3.235v44.952c2.234,2.227,4.447,3.265,6.645,3.265
		c3.869,0,5.84-3.265,5.84-9.939V307.95C413.302,301.295,411.332,297.89,407.462,297.89z"/>
	<path fill="#414042" d="M489.667,260.414c-2.668-11.746-12.283-20.409-23.859-21.705c-27.43-3.078-55.15-3.078-82.768-3.078
		c-27.605,0-55.34,0-82.756,3.078c-11.575,1.296-21.184,9.959-23.889,21.705c-3.843,16.764-3.872,34.993-3.872,52.237
		c0,17.234,0,35.52,3.849,52.247c2.685,11.755,12.293,20.426,23.875,21.721c27.405,3.055,55.135,3.065,82.743,3.055
		c27.621,0.01,55.369,0,82.773-3.055c11.547-1.295,21.176-9.966,23.867-21.721c3.867-16.727,3.869-35.013,3.869-52.247
		C493.5,295.406,493.531,277.177,489.667,260.414z M335.558,275.484h-16.01v84.986h-14.863v-84.986h-15.719v-13.926h46.592V275.484z
		 M375.898,360.47h-13.352v-8.036c-5.318,6.086-10.342,9.048-15.27,9.048c-4.314,0-7.271-1.739-8.602-5.476
		c-0.73-2.243-1.182-5.742-1.182-10.954v-58.297h13.346v54.264c0,3.122,0,4.771,0.123,5.202c0.334,2.083,1.352,3.122,3.131,3.122
		c2.682,0,5.486-2.076,8.453-6.25v-56.337h13.352V360.47z M426.63,338.372c0,6.801-0.461,11.709-1.332,14.813
		c-1.791,5.509-5.379,8.297-10.688,8.297c-4.762,0-9.346-2.645-13.793-8.15v7.138h-13.367v-98.912h13.367v32.298
		c4.318-5.302,8.875-7.996,13.793-7.996c5.309,0,8.896,2.791,10.688,8.323c0.871,2.958,1.332,7.846,1.332,14.811V338.372z
		 M477.033,326.048h-26.709v13.074c0,6.831,2.24,10.22,6.814,10.22c3.293,0,5.219-1.803,5.973-5.352
		c0.127-0.738,0.305-3.683,0.305-9.048h13.617v1.939c0,4.297-0.156,7.259-0.299,8.601c-0.432,2.951-1.486,5.666-3.1,8.01
		c-3.699,5.345-9.164,7.989-16.139,7.989c-7.002,0-12.312-2.514-16.182-7.556c-2.836-3.662-4.291-9.488-4.291-17.317v-25.814
		c0-7.896,1.305-13.652,4.141-17.381c3.855-5.045,9.16-7.552,15.975-7.552c6.707,0,12.023,2.507,15.766,7.552
		c2.797,3.729,4.129,9.485,4.129,17.381V326.048z"/>
	<path fill="#414042" d="M457.021,297.89c-4.457,0-6.697,3.405-6.697,10.227v6.811h13.371v-6.811
		C463.695,301.295,461.458,297.89,457.021,297.89z"/>
</g>
</svg>
