<?xml version="1.0" encoding="utf-8"?>
<!-- Generator: Adobe Illustrator 15.0.2, SVG Export Plug-In . SVG Version: 6.00 Build 0)  -->
<!DOCTYPE svg PUBLIC "-//W3C//DTD SVG 1.1//EN" "http://www.w3.org/Graphics/SVG/1.1/DTD/svg11.dtd">
<svg version="1.1" id="Layer_1" xmlns="http://www.w3.org/2000/svg" xmlns:xlink="http://www.w3.org/1999/xlink" x="0px" y="0px"
	 width="512px" height="512px" viewBox="0 0 512 512" enable-background="new 0 0 512 512" xml:space="preserve">
<g>
	<g>
		<path fill="#414042" d="M293.604,191.266h4.69c2.591,0,4.694-2.1,4.694-4.694v-5.32c0-2.587-2.104-4.69-4.694-4.69h-4.69
			c-2.595,0-4.7,2.104-4.7,4.69v5.32C288.903,189.167,291.009,191.266,293.604,191.266z"/>
		<path fill="#414042" d="M165.475,205.367v131.471H346.52V205.367H165.475z M236.011,291.463c-1.072,0.677-2.303,1.038-3.56,1.038
			c-0.977,0-1.906-0.203-2.79-0.618l-34.028-15.823c-2.323-1.083-3.822-3.439-3.822-5.997v-0.474c0-2.563,1.5-4.916,3.822-5.993
			l34.028-15.83c0.86-0.396,1.821-0.608,2.782-0.608c1.277,0,2.51,0.361,3.568,1.034c1.91,1.215,3.052,3.303,3.052,5.57v0.178
			c0,2.563-1.503,4.912-3.828,5.997l-21.282,9.886l21.282,9.892c2.324,1.08,3.828,3.438,3.828,6v0.17
			C239.063,288.154,237.921,290.238,236.011,291.463z M244.876,311.008h-0.174c-2.1,0-4.094-1.014-5.335-2.717
			c-1.241-1.697-1.603-3.907-0.957-5.914l22.412-69.46c0.88-2.749,3.409-4.598,6.305-4.598h0.163c2.107,0,4.103,1.018,5.344,2.711
			c1.245,1.707,1.604,3.921,0.957,5.923l-22.418,69.452C250.293,309.159,247.767,311.008,244.876,311.008z M320.191,270.063
			c0,2.557-1.5,4.913-3.822,5.997l-34.033,15.823c-0.884,0.415-1.817,0.618-2.786,0.618c-1.257,0-2.486-0.361-3.556-1.034
			c-1.914-1.229-3.053-3.313-3.053-5.58v-0.17c0-2.563,1.5-4.921,3.822-6l21.285-9.888l-21.285-9.886
			c-2.326-1.089-3.822-3.438-3.822-6v-0.178c0-2.267,1.139-4.355,3.061-5.57c1.054-0.673,2.291-1.03,3.556-1.03
			c0.961,0,1.927,0.207,2.778,0.607l34.029,15.826c2.326,1.085,3.826,3.429,3.826,5.993V270.063z"/>
		<path fill="#414042" d="M315.428,191.266h4.698c2.591,0,4.688-2.1,4.688-4.694v-5.32c0-2.587-2.098-4.69-4.688-4.69h-4.698
			c-2.591,0-4.694,2.104-4.694,4.69v5.32C310.733,189.167,312.837,191.266,315.428,191.266z"/>
		<path fill="#414042" d="M341.956,176.562h-4.696c-2.595,0-4.694,2.104-4.694,4.69v5.32c0,2.595,2.1,4.694,4.694,4.694h4.696
			c2.587,0,4.69-2.1,4.69-4.694v-5.32C346.646,178.665,344.543,176.562,341.956,176.562z"/>
		<path fill="#414042" d="M255.998,18.501C124.831,18.501,18.5,124.827,18.5,255.998c0,131.167,106.33,237.501,237.497,237.501
			c131.171,0,237.502-106.334,237.502-237.501C493.5,124.827,387.169,18.501,255.998,18.501z M361.781,339.381
			c0,7.013-5.705,12.709-12.714,12.709H162.934c-7.009,0-12.713-5.697-12.713-12.709V172.617c0-7.015,5.705-12.715,12.713-12.715
			h186.134c7.009,0,12.714,5.708,12.714,12.715V339.381z"/>
	</g>
</g>
</svg>
