<?xml version="1.0" encoding="utf-8"?>
<!-- Generator: Adobe Illustrator 15.0.2, SVG Export Plug-In . SVG Version: 6.00 Build 0)  -->
<!DOCTYPE svg PUBLIC "-//W3C//DTD SVG 1.1//EN" "http://www.w3.org/Graphics/SVG/1.1/DTD/svg11.dtd">
<svg version="1.1" id="Layer_1" xmlns="http://www.w3.org/2000/svg" xmlns:xlink="http://www.w3.org/1999/xlink" x="0px" y="0px"
	 width="512px" height="512px" viewBox="0 0 512 512" enable-background="new 0 0 512 512" xml:space="preserve">
<g>
	<g>
		<path fill="#414042" d="M464.955,40.246H47.045c-15.744,0-28.546,12.796-28.546,28.542v374.421
			c0,15.742,12.802,28.546,28.546,28.546h417.917c15.737,0,28.538-12.804,28.538-28.546V68.788
			C493.5,53.058,480.7,40.246,464.955,40.246L464.955,40.246z M378.896,88.178c0-5.826,4.715-10.545,10.532-10.545h10.545
			c5.822,0,10.537,4.719,10.537,10.545v11.942c0,5.826-4.715,10.541-10.537,10.541h-10.545c-5.817,0-10.532-4.714-10.532-10.541
			V88.178z M329.885,88.178c0-5.826,4.715-10.545,10.537-10.545h10.536c5.822,0,10.541,4.719,10.541,10.545v11.942
			c0,5.826-4.719,10.541-10.541,10.541h-10.536c-5.822,0-10.537-4.714-10.537-10.541V88.178z M459.247,437.493H52.753V142.319
			h406.49v295.174H459.247z M459.52,100.12c0,5.826-4.719,10.541-10.54,10.541h-10.537c-5.822,0-10.536-4.714-10.536-10.541V88.178
			c0-5.826,4.714-10.545,10.536-10.545h10.537c5.821,0,10.54,4.719,10.54,10.545V100.12z M459.52,100.12"/>
		<path fill="#414042" d="M120.461,301.04l76.408,35.536c1.973,0.911,4.073,1.369,6.251,1.369c2.829,0,5.587-0.801,7.987-2.32
			c4.296-2.746,6.866-7.424,6.866-12.514v-0.392c0-5.757-3.376-11.043-8.598-13.47l-47.783-22.205l47.783-22.201
			c5.222-2.427,8.598-7.722,8.598-13.462v-0.396c0-5.091-2.57-9.777-6.866-12.506c-2.368-1.528-5.138-2.329-8-2.329
			c-2.151,0-4.311,0.482-6.247,1.373l-76.4,35.528c-5.213,2.427-8.586,7.718-8.586,13.47v1.054
			C111.875,293.322,115.24,298.604,120.461,301.04L120.461,301.04z M120.461,301.04"/>
		<path fill="#414042" d="M218.651,373.411c2.786,3.82,7.271,6.092,11.99,6.092h0.388c6.481,0,12.159-4.147,14.132-10.316
			l50.337-155.941c1.442-4.502,0.642-9.475-2.149-13.295c-2.79-3.815-7.269-6.091-11.995-6.091h-0.38
			c-6.484,0-12.167,4.143-14.145,10.32l-50.333,155.95C215.058,364.644,215.871,369.604,218.651,373.411L218.651,373.411z
			 M218.651,373.411"/>
		<path fill="#414042" d="M294.026,251.379c0,5.74,3.371,11.035,8.593,13.474l47.788,22.201l-47.788,22.193
			c-5.218,2.427-8.593,7.713-8.593,13.47v0.392c0,5.09,2.57,9.769,6.868,12.518c2.391,1.516,5.148,2.316,7.983,2.316
			c2.174,0,4.273-0.458,6.264-1.369l76.396-35.536c5.222-2.431,8.592-7.718,8.592-13.462v-1.058c0-5.752-3.37-11.031-8.592-13.47
			l-76.4-35.52c-1.928-0.898-4.085-1.381-6.242-1.381c-2.852,0-5.622,0.801-7.991,2.329c-4.307,2.737-6.877,7.415-6.877,12.514
			V251.379z M294.026,251.379"/>
	</g>
</g>
</svg>
