<?xml version="1.0" encoding="utf-8"?>
<!-- Generator: Adobe Illustrator 15.0.2, SVG Export Plug-In . SVG Version: 6.00 Build 0)  -->
<!DOCTYPE svg PUBLIC "-//W3C//DTD SVG 1.1//EN" "http://www.w3.org/Graphics/SVG/1.1/DTD/svg11.dtd">
<svg version="1.1" id="Layer_1" xmlns="http://www.w3.org/2000/svg" xmlns:xlink="http://www.w3.org/1999/xlink" x="0px" y="0px"
	 width="511.999px" height="512px" viewBox="0 0 511.999 512" enable-background="new 0 0 511.999 512" xml:space="preserve">
<g>
	<g>
		<g>
			<path fill="#414042" d="M56.515,300.237c0,0-6.283,4.397-11.608,4.77c-4.293,0.296-6.472-0.394-10.231-2.534
				c-4.076-2.315-8.359-8.047-9.803-11.944c-1.137-3.049-1.998-5.874-1.998-5.874l-0.09-0.312L5.882,208.863l-2.662,0.479
				l16.919,75.516l0.097,0.386c0.017,0.021,0.89,2.921,2.052,6.022c1.614,4.378,6.143,10.515,10.916,13.228
				c4.244,2.41,7.127,3.175,11.621,3.115c6.756-0.081,13.936-5.182,13.936-5.182l9.725-6.938l7.547,5.688
				c1.826,1.483,10.289,7.483,16.047,7.508c0.945,0.012,4.696,0.187,5.629,0.032c2.938-0.505,6.025-1.407,9.428-3.3
				c4.716-2.629,7.606-8.974,9.285-13.365c1.186-3.102,2.154-6.209,2.178-6.307c4.881-18.885,17.048-75.785,17.048-75.785
				l-2.659-0.499l-17.08,75.923c-0.018,0.032-1.344,4.158-2.062,5.893c-1.706,4.08-4.485,10.062-8.157,12.109
				c-3.136,1.741-5.869,2.517-8.497,2.964c-0.755,0.131-4.334-0.063-5.105-0.069c-4.446-0.022-11.978-5.62-13.79-7.017l-9.797-7.997
				L56.515,300.237z"/>
			<path fill="#414042" d="M96.239,309.539c-0.971,0-2.172-0.037-3.076-0.065c-0.475-0.015-0.865-0.026-1.092-0.029
				c-6.803-0.03-16.424-7.603-16.518-7.679l-7.08-5.335l-9.271,6.616c-0.303,0.215-7.455,5.238-14.367,5.322l-0.486,0.001
				c-4.377,0-7.284-0.811-11.52-3.216c-4.934-2.805-9.597-9.13-11.254-13.625c-0.951-2.54-1.717-4.966-1.969-5.764l-0.204-0.722
				L2.306,208.735l4.158-0.749l17.14,76.456c0.006,0.019,0.864,2.831,1.98,5.82c1.398,3.776,5.536,9.317,9.466,11.55
				c2.975,1.693,4.947,2.5,8.111,2.5c0.521,0,1.076-0.02,1.693-0.062c5.047-0.353,11.164-4.593,11.225-4.635l12.439-9.312
				l10.257,8.373c4.274,3.291,10.03,6.829,13.313,6.845c0.22,0.002,0.652,0.018,1.184,0.037c0.87,0.033,2.06,0.078,2.906,0.078
				c0.62,0,0.824-0.024,0.883-0.034c3.063-0.521,5.609-1.41,8.258-2.879c3.41-1.902,6.1-7.61,7.826-11.738
				c0.575-1.392,1.582-4.45,1.913-5.455c0.058-0.175,0.093-0.282,0.116-0.351l17.232-76.6l4.145,0.778l-0.162,0.762
				c-0.123,0.568-12.227,57.133-17.055,75.815c-0.041,0.168-1.028,3.309-2.205,6.388c-2.742,7.177-5.891,11.678-9.625,13.758
				c-3.059,1.702-6.13,2.778-9.668,3.384C97.53,309.516,97.023,309.539,96.239,309.539z M68.498,294.548l7.991,6.021
				c1.922,1.562,10.133,7.333,15.594,7.356c0.238,0.003,0.64,0.015,1.127,0.031c0.891,0.027,2.074,0.063,3.029,0.063
				c0.892,0,1.225-0.033,1.346-0.054c3.359-0.575,6.277-1.597,9.181-3.213c3.409-1.899,6.335-6.144,8.946-12.974
				c1.154-3.024,2.1-6.041,2.152-6.231c4.514-17.463,15.412-68.153,16.877-74.986l-1.174-0.22l-16.943,75.316l-0.021,0.037
				c-0.02,0.06-0.055,0.167-0.102,0.308c-0.37,1.126-1.355,4.116-1.953,5.563c-1.814,4.339-4.668,10.351-8.49,12.482
				c-2.806,1.557-5.501,2.498-8.738,3.048c-0.138,0.024-0.407,0.057-1.141,0.057c-0.875,0-2.082-0.045-2.963-0.079
				c-0.51-0.019-0.928-0.034-1.136-0.036c-4.606-0.022-12.071-5.496-14.249-7.174l-9.353-7.635l-11.509,8.614
				c-0.283,0.198-6.539,4.537-12.01,4.921c-0.654,0.044-1.241,0.065-1.799,0.065c-3.484,0-5.719-0.908-8.862-2.699
				c-4.217-2.396-8.648-8.314-10.139-12.34c-1.132-3.032-2.003-5.889-2.012-5.917l-0.093-0.32L5.3,209.739l-1.166,0.211
				l16.746,74.741l0.086,0.34c0.022,0.064,0.049,0.151,0.089,0.276c0.248,0.789,1.005,3.187,1.944,5.692
				c1.564,4.242,5.949,10.201,10.581,12.834c3.975,2.257,6.691,3.019,10.77,3.019l0.467-0.003
				c6.443-0.078,13.437-4.991,13.506-5.041L68.498,294.548z"/>
		</g>
		<g>
			<polygon fill="#414042" points="146.199,301.743 143.662,301.73 144.093,209.752 146.624,209.763 			"/>
			<path fill="#414042" d="M146.956,302.507l-4.058-0.021l0.438-93.497l4.049,0.018L146.956,302.507z M144.425,300.975l1.019,0.006
				l0.418-90.461l-1.013-0.005L144.425,300.975z"/>
		</g>
		<g>
			<path fill="#414042" d="M89.226,298.564c0.551,0.235,3.27,1.25,5.371,1.253c1.639,0.003,4.816,0.144,6.862-1.84
				c2.323-2.272,4.692-7.214,5.807-10.11c1.034-2.724,1.833-5.255,1.847-5.298l0.014-0.004l17.531-72.672
				c0.039-0.171,0.415-1.741-0.78-3.257c-0.987-1.269-2.735-2.057-5.177-2.339v-0.01c0,0-0.004,0-0.012,0l0,0l-1.149-0.132
				l-0.011,0.037c-2.198-0.113-3.988,0.291-5.323,1.219c-1.661,1.158-1.998,2.692-2.065,3.092L94.653,279.31l-0.023-0.005
				c-0.211,0.666-0.775,2.381-1.416,4.094c-0.074,0.144-0.148,0.321-0.223,0.527c-0.187,0.51-0.348,0.872-0.543,1.071
				c-0.034-0.089-17.098-12.101-22.706-16.047c-1.109-0.779-1.236-0.967-1.8-0.964c-0.537,0.011-1.594,0.943-1.594,0.943
				l-20.174,15.108c-0.2-0.183-0.348-0.537-0.499-0.949c-0.705-1.883-1.272-3.666-1.468-4.267l-16.859-71.094
				c-0.06-0.402-0.389-1.946-2.04-3.118c-1.323-0.938-3.108-1.359-5.312-1.266l-0.006-0.045l-1.152,0.135h-0.006
				c-0.003,0-0.003,0-0.01-0.006c-2.028,0.221-3.593,0.959-4.656,2.195c-1.841,2.121-1.394,4.935-1.36,5.119l16.879,71.137
				c0.008,0.021,0.786,3.459,1.803,6.201c0.729,1.961,2.379,6.643,5.553,9.094c1.795,1.404,5.979,2.34,8.838,1.595
				c3.922-1.024,22.375-15.354,22.375-15.354S86.231,297.297,89.226,298.564 M68.13,280.183c0,0-21.156,15.873-22.887,16.207
				c-1.699,0.326-5.146-0.096-6.694-1.222c-1.864-1.363-3.966-5.936-4.653-7.79c-0.99-2.66-1.746-6.015-1.752-6.015l0,0l-16.845-71
				c-0.007-0.016-0.309-2.04,0.886-3.4c0.45-0.514,1.054-0.875,1.833-1.098c0,0,1.156-0.296,2.504-0.302
				c1.356-0.007,2.417,0.244,3.176,0.766c1,0.698,1.138,1.651,1.141,1.671l0.007,0.067l16.913,71.285
				c0.222,0.688,0.792,2.508,1.517,4.447c0.263,0.709,0.81,2.179,2.559,2.533l0.342,0.077l0.34-0.102l19.638-14.083
				c0,0,1.366-1.166,2.019-1.166c0.668,0.009,0.785,0.293,2.051,1.225c5.576,4.078,20.803,14.793,21.91,15.081
				c1.471,0.387,2.129,0.021,3.012-2.114c0.602-1.456,1.4-3.212,1.924-5.33l17.561-70.98l0.02-0.137
				c0-0.012,0.145-0.958,1.125-1.636c0.766-0.523,1.84-0.782,3.216-0.759c0,0,1.075,0.074,2.513,0.288
				c1.073,0.249,1.851,0.651,2.287,1.189c0.575,0.708,0.406,1.479,0.404,1.517l-17.502,72.552h-0.008
				c-0.008,0.026-0.8,2.518-1.814,5.192c-0.926,2.413-2.749,6.206-4.83,8.402c-1.934,2.062-5.811,1.881-8.654,0.935
				C88.755,295.609,68.13,280.183,68.13,280.183"/>
			<path fill="#414042" d="M95.329,300.58L95.329,300.58l-0.734-0.004c-2.129-0.002-4.874-0.974-5.668-1.314
				c-2.809-1.188-17.766-12.651-20.672-14.887c-2.961,2.284-18.467,14.158-22.183,15.13c-0.733,0.19-1.56,0.287-2.458,0.287
				c-2.625,0-5.521-0.83-7.041-2.019c-3.233-2.498-4.912-7.038-5.719-9.22l-0.077-0.209c-0.863-2.326-1.557-5.131-1.815-6.229
				l-16.894-71.198c-0.032-0.173-0.586-3.357,1.525-5.792c1.191-1.384,2.924-2.21,5.147-2.452l0.348-0.038l0.006,0.005l1.539-0.18
				l0.017,0.111c2.066,0.009,3.782,0.486,5.098,1.418c1.881,1.334,2.277,3.113,2.354,3.626l16.846,71.03l0.032,0.095
				c0.228,0.704,0.76,2.355,1.407,4.082c0.011,0.029,0.021,0.058,0.032,0.085l19.474-14.587c0.427-0.378,1.325-1.08,2.034-1.095
				c0.002,0,0.002,0,0.002,0c0.721,0,1.059,0.244,1.729,0.729c0.146,0.105,0.316,0.229,0.521,0.374
				c15.145,10.654,20.256,14.252,22.016,15.557c0.027-0.069,0.056-0.144,0.085-0.223c0.077-0.217,0.158-0.41,0.237-0.571
				c0.734-1.965,1.324-3.812,1.391-4.018l0.103-0.327l17.394-70.426c0.099-0.603,0.553-2.269,2.367-3.533
				c1.343-0.932,3.086-1.4,5.184-1.374l0.014-0.051l0.656,0.037l1.108,0.127h0.717l0.001,0.105c2.316,0.371,4.004,1.224,5.025,2.537
				c1.307,1.655,1.036,3.395,0.922,3.889l-17.645,73.145l-0.051,0.012c-0.273,0.844-0.93,2.82-1.727,4.921
				c-1.038,2.697-3.465,7.917-5.986,10.384C100.107,300.346,97.442,300.58,95.329,300.58z M68.253,282.455l0.467,0.358
				c4.977,3.846,18.42,14.044,20.801,15.052c0.59,0.252,3.17,1.19,5.077,1.192l0.731,0.004c1.939,0,4.122-0.193,5.601-1.629
				c2.03-1.986,4.341-6.492,5.626-9.839c1.029-2.705,1.822-5.223,1.83-5.246l0.053-0.17l17.479-72.462
				c0.075-0.325,0.253-1.48-0.638-2.607c-0.859-1.107-2.429-1.798-4.666-2.057l-0.827-0.102l-0.298,0.001
				c-2.025-0.102-3.664,0.261-4.852,1.085c-1.379,0.962-1.688,2.229-1.75,2.594l-17.669,71.558l-0.071-0.014
				c-0.253,0.766-0.703,2.102-1.223,3.49l-0.036,0.081c-0.062,0.12-0.121,0.268-0.183,0.437c-0.225,0.61-0.422,1.046-0.715,1.347
				l-0.83,0.846l-0.346-0.905c-1.401-1.028-12.096-8.571-22.51-15.897c-0.213-0.148-0.388-0.275-0.539-0.385
				c-0.609-0.441-0.625-0.441-0.811-0.441c-0.154,0.033-0.705,0.399-1.105,0.755l-20.723,15.522l-0.465-0.423
				c-0.337-0.309-0.531-0.786-0.701-1.248c-0.656-1.756-1.197-3.43-1.428-4.145l-0.048-0.152l-16.875-71.15
				c-0.066-0.427-0.351-1.688-1.741-2.675c-1.177-0.833-2.811-1.213-4.838-1.126l-0.583,0.024l-0.637,0.065
				c-1.783,0.213-3.152,0.86-4.069,1.926c-1.641,1.892-1.193,4.461-1.188,4.487l16.886,71.162c0.252,1.07,0.928,3.802,1.761,6.048
				l0.077,0.211c0.758,2.048,2.335,6.312,5.227,8.547c1.262,0.985,3.828,1.699,6.109,1.699c0.77,0,1.468-0.08,2.074-0.238
				c3.092-0.809,17.002-11.262,22.101-15.22L68.253,282.455z M95.439,297.923c-1.38,0-2.905-0.256-4.296-0.718
				c-2.529-0.842-19.463-13.425-23.013-16.074c-5.466,4.097-21.028,15.675-22.744,16.006c-0.417,0.079-0.914,0.119-1.476,0.119
				c-1.883,0-4.41-0.456-5.81-1.474c-2.122-1.553-4.316-6.521-4.918-8.14c-0.384-1.031-0.972-2.811-1.637-5.52h-0.004
				l-16.984-71.584l0.007-0.002c-0.101-0.53-0.249-2.6,1.048-4.076c0.543-0.619,1.281-1.066,2.194-1.326
				c0.07-0.018,1.282-0.324,2.708-0.331c1.545,0,2.741,0.302,3.61,0.899c1.196,0.835,1.428,1.959,1.462,2.177l0.007,0.062
				l16.901,71.237l0.07,0.213c0.254,0.79,0.781,2.436,1.418,4.144c0.32,0.863,0.764,1.804,1.998,2.053l0.165,0.038l0.026-0.009
				l19.535-14.008c0.425-0.366,1.62-1.31,2.461-1.31c0.756,0.01,1.115,0.295,1.713,0.768c0.203,0.159,0.454,0.359,0.787,0.604
				c6.03,4.411,20.438,14.504,21.68,14.967c0.256,0.066,0.479,0.103,0.656,0.103c0.311,0,0.699,0,1.436-1.78l0.275-0.662
				c0.553-1.317,1.18-2.809,1.612-4.561l17.561-70.98c0.001-0.007,0.002-0.014,0.002-0.021l0.004-0.043l0.001,0.001
				c0.057-0.388,0.376-1.412,1.443-2.15c0.867-0.596,2.038-0.896,3.479-0.896l0.183,0.001c0.084,0.005,1.161,0.08,2.61,0.297
				c1.309,0.301,2.219,0.788,2.766,1.461c0.477,0.588,0.685,1.354,0.566,2.099l-0.015,0.075l-17.64,73.133h-0.055
				c-0.295,0.903-0.913,2.743-1.656,4.703c-1.059,2.757-2.925,6.477-4.989,8.654C99.455,297.281,97.673,297.923,95.439,297.923z
				 M68.13,279.234l0.456,0.341c8.251,6.171,21.194,15.575,23.037,16.188c1.24,0.413,2.596,0.641,3.816,0.641
				c1.258,0,2.979-0.237,4.046-1.373c1.916-2.023,3.715-5.657,4.674-8.155c1.014-2.67,1.789-5.115,1.795-5.137l0.041-0.13
				l17.451-72.35c0.023-0.159,0.039-0.542-0.248-0.895c-0.322-0.397-0.969-0.719-1.869-0.927c-1.328-0.196-2.382-0.271-2.393-0.271
				l-0.117,0.001c-1.129,0-2.01,0.211-2.617,0.628c-0.656,0.453-0.79,1.054-0.803,1.118l-0.02,0.137l-17.576,71.054
				c-0.46,1.864-1.139,3.483-1.686,4.783l-0.272,0.653c-0.694,1.68-1.411,2.721-2.839,2.721c-0.312,0-0.652-0.052-1.066-0.16
				c-1.435-0.374-18.346-12.409-22.166-15.205c-0.354-0.259-0.619-0.469-0.832-0.637c-0.553-0.438-0.57-0.438-0.782-0.44
				c-0.208,0.028-0.942,0.498-1.515,0.985l-19.791,14.195l-0.652,0.195l-0.537-0.122c-2.149-0.434-2.817-2.238-3.103-3.009
				c-0.649-1.737-1.185-3.407-1.441-4.209l-0.087-0.268l-16.945-71.445c-0.006-0.052-0.119-0.696-0.827-1.19
				c-0.606-0.416-1.513-0.629-2.689-0.629c-1.29,0.007-2.357,0.276-2.368,0.279c-0.616,0.175-1.097,0.459-1.449,0.861
				c-0.894,1.017-0.733,2.583-0.712,2.756l16.837,70.97l-0.004,0.001c0.014,0.044,0.026,0.089,0.038,0.138
				c0.691,2.885,1.302,4.739,1.69,5.786c0.677,1.82,2.721,6.221,4.391,7.442c1.365,0.993,4.648,1.368,6.103,1.089
				c1.384-0.408,14.585-10.073,22.575-16.068L68.13,279.234z"/>
		</g>
		<g>
			<path fill="#414042" d="M198.32,270.343c1.149-0.292,7.858-1.935,13.932-8.778c16.163-18.219,5.163-38.82,1.554-44.5l0.01-0.007
				c-0.02-0.037-0.045-0.068-0.072-0.102c-0.498-0.784-0.844-1.261-0.938-1.386l-0.047,0.027
				c-6.137-7.819-17.134-11.089-25.715-11.512c-6.092-0.298-22.475-0.826-22.76-0.833l-0.047-0.002
				c-4.615-0.004-8.181,1.098-10.598,3.279c-3.162,2.866-3.109,6.519-3.109,6.637l-0.406,87.345
				c-0.018,2.88,3.469,5.442,7.449,5.458c4.257,0.021,7.466-3.259,7.483-5.39l0.752-80.347c-0.064-2.108,0.573-2.666,0.765-2.709
				c3.737,0.098,7.007,0.145,9.641,0.178c4.328,0.055,11.955,0.114,12.849,0.382l0.265,0.048c0.073,0.007,7.189,0.752,10.652,5.083
				c0.033,0.04,3.353,4.296,4.982,10.319c2.033,7.553,0.539,14.239-4.466,19.878c-2.677,3.016-8.114,4.929-10.017,5.42l-0.688,0.188
				c-8.091,2.28-10.296,6.679-7.164,13.479l18.04,29.351c1.689,2.456,4.039,3.614,6.953,3.993c1.57,0.102,2.872,0.579,5.367-1.087
				c3.391-2.241,3.07-6.15,1.803-8.761L198.32,270.343z M211.446,303.072c-2.562,1.448-6.767,0.346-8.61-2.365l-17.997-29.306
				c-2.37-5.141-0.037-8.931,5.723-10.254c0.178-0.032,0.66-0.18,0.66-0.18c2.594-0.669,8.293-2.808,11.271-6.171
				c13.436-15.16-0.305-32.704-0.449-32.869c-3.904-4.884-11.229-5.884-12.32-5.998c-1.262-0.322-8.041-0.391-13.471-0.47
				c-2.627-0.031-5.899-0.077-9.555-0.169c-0.175-0.02-1.121-0.047-2.001,0.686c-0.997,0.826-1.472,2.269-1.424,4.271l-0.745,80.315
				c-0.008,0.821-1.951,3.186-4.942,3.173c-2.825-0.015-4.94-1.705-4.927-3.217l0.406-87.361c-0.004-0.034-0.023-2.907,2.406-5.082
				c1.92-1.72,4.852-2.582,8.725-2.593l0,0c0.307,0.014,16.742,0.544,22.719,0.825c8.055,0.41,19.358,3.746,24.713,11.864
				c3.396,5.351,13.851,24.854-1.367,42.017c-5.581,6.29-12.612,7.982-13.665,8.369c-0.665,0.251-1.216,0.644-1.323,1.198
				c-0.082,0.437,0.865,1.719,0.873,1.728l0,0l16.623,25.695C213.386,298.531,213.984,301.65,211.446,303.072z"/>
			<path fill="#414042" d="M209.466,306.742L209.466,306.742c-0.434,0-0.836-0.041-1.225-0.081
				c-0.221-0.023-0.443-0.046-0.671-0.061c-3.384-0.438-5.83-1.852-7.528-4.322l-18.105-29.463c-1.619-3.518-1.87-6.391-0.766-8.783
				c1.202-2.608,3.955-4.487,8.414-5.744l0.694-0.19c1.825-0.469,7.097-2.313,9.649-5.188c4.816-5.429,6.264-11.881,4.299-19.178
				c-1.574-5.825-4.808-10-4.84-10.039c-3.254-4.072-10.064-4.798-10.135-4.805l-0.408-0.075c-0.765-0.211-7.564-0.292-11.218-0.334
				l-1.423-0.017c-2.787-0.036-5.846-0.081-9.354-0.171c-0.112,0.204-0.317,0.741-0.282,1.92l-0.752,80.376
				c-0.02,2.472-3.473,6.143-8.2,6.143c-2.572-0.011-5.03-0.975-6.618-2.578c-1.075-1.087-1.639-2.346-1.632-3.644l0.405-87.344
				c-0.002-0.424,0.078-4.223,3.359-7.196c2.555-2.308,6.286-3.477,11.09-3.477l0.113,0.004c0.455,0.011,16.697,0.536,22.748,0.832
				c8.371,0.414,19.459,3.602,25.857,11.284l0.016-0.01l0.455,0.509c0.136,0.178,0.486,0.671,0.953,1.405
				c0.045,0.056,0.079,0.105,0.111,0.159l0.176,0.305c3.958,6.358,14.365,26.837-1.828,45.09c-4.836,5.448-10.098,7.765-13.305,8.73
				l15.957,24.863c1.417,2.919,1.727,7.218-2.068,9.726C212.005,306.323,210.788,306.742,209.466,306.742z M183.298,272.141
				l18.018,29.31c1.438,2.092,3.479,3.259,6.401,3.64c0.198,0.012,0.44,0.035,0.681,0.06c0.366,0.038,0.713,0.074,1.068,0.074l0,0
				c0.719,0,1.648-0.13,3.1-1.099c2.961-1.958,2.693-5.394,1.561-7.759l-17.015-26.499l1.022-0.259
				c2.901-0.737,8.461-2.812,13.551-8.549c15.773-17.779,5.121-37.857,1.48-43.589l-0.369-0.58c-0.135-0.206-0.25-0.375-0.342-0.507
				l-0.292-0.317c-6.009-7.655-16.935-10.816-25.155-11.222c-6.041-0.296-22.254-0.821-22.74-0.833l-0.078-0.004
				c-4.385,0.002-7.773,1.039-10.04,3.085c-2.792,2.532-2.86,5.711-2.859,6.066l-0.405,87.356c-0.006,0.887,0.407,1.774,1.193,2.567
				c1.291,1.305,3.397,2.12,5.499,2.127c3.943,0,6.708-3.009,6.722-4.637l0.752-80.347c-0.092-2.96,1.112-3.388,1.355-3.443
				l0.092-0.021l0.096,0.002c3.625,0.095,6.771,0.142,9.631,0.178l1.422,0.018c6.963,0.082,10.707,0.164,11.582,0.383l0.234,0.042
				l0,0c0.028,0,7.41,0.728,11.109,5.356c0.016,0.018,3.455,4.43,5.123,10.595c2.105,7.822,0.548,14.746-4.63,20.581
				c-3.381,3.809-10.325,5.631-10.396,5.649l-0.679,0.186c-3.999,1.128-6.436,2.735-7.44,4.916
				C181.646,266.625,181.892,269.069,183.298,272.141z M157.612,304.494c-1.866-0.009-3.613-0.676-4.705-1.783
				c-0.656-0.666-1.015-1.447-1.007-2.199l0.41-87.358c0.006-0.554,0.171-3.422,2.655-5.645c2.053-1.837,5.158-2.775,9.229-2.786
				l0.035,0.001c0.049,0.002,0.525,0.018,1.312,0.044c4.058,0.136,16.401,0.546,21.409,0.782c8.24,0.419,19.811,3.866,25.312,12.204
				c3.592,5.657,14.083,25.441-1.433,42.938c-5.158,5.813-11.446,7.782-13.513,8.431c-0.205,0.063-0.36,0.112-0.46,0.147
				c-0.424,0.161-0.727,0.372-0.817,0.563c0.081,0.232,0.397,0.768,0.716,1.198l16.704,25.832c0.87,1.905,1.151,5.307-1.642,6.872
				c-0.853,0.481-1.896,0.736-3.019,0.736c-2.624,0-5.212-1.311-6.592-3.338l-18.058-29.414c-1.184-2.566-1.302-4.953-0.344-6.903
				c1.049-2.137,3.327-3.661,6.587-4.409c0.187-0.035,0.605-0.166,0.605-0.166c2.56-0.662,8.089-2.741,10.927-5.948
				c12.931-14.59-0.327-31.71-0.465-31.879c-3.807-4.762-11.008-5.645-11.816-5.729l-0.108-0.021
				c-1.063-0.271-7.035-0.355-11.833-0.424l-1.461-0.021c-2.463-0.028-5.778-0.074-9.562-0.168l-0.137-0.007
				c-0.174,0-0.785,0.037-1.359,0.517c-0.805,0.667-1.192,1.901-1.15,3.668l-0.745,80.341
				C163.276,301.912,160.872,304.494,157.612,304.494z M164.183,206.241c-3.68,0.013-6.44,0.819-8.204,2.399
				c-2.156,1.929-2.154,4.47-2.154,4.495l-0.405,87.387c-0.004,0.349,0.199,0.746,0.57,1.123c0.628,0.638,1.904,1.321,3.602,1.33
				c2.562,0,4.113-1.972,4.178-2.437l0.746-80.3c-0.055-2.229,0.518-3.87,1.697-4.848c0.939-0.782,1.943-0.866,2.33-0.866
				c0.114,0,0.197,0.007,0.246,0.013c3.704,0.089,7.012,0.133,9.473,0.162l1.463,0.021c6.308,0.09,10.889,0.176,12.129,0.457
				c1.086,0.12,8.673,1.133,12.785,6.274c0.129,0.148,14.241,18.256,0.424,33.848c-3.074,3.473-8.769,5.657-11.648,6.402
				c-0.004,0.001-0.52,0.156-0.715,0.19c-2.765,0.637-4.688,1.881-5.529,3.593c-0.756,1.537-0.642,3.407,0.34,5.557l17.975,29.267
				c1.067,1.569,3.211,2.644,5.315,2.644c0.86,0,1.646-0.188,2.273-0.541c2.401-1.346,1.195-4.465,1.024-4.873l-16.589-25.643
				c-0.497-0.661-1.102-1.636-0.982-2.278c0.104-0.541,0.502-1.28,1.802-1.771c0.12-0.044,0.299-0.101,0.535-0.174
				c1.967-0.616,7.953-2.49,12.83-7.989c14.812-16.702,4.734-35.685,1.295-41.104c-5.182-7.854-16.229-11.111-24.111-11.513
				c-4.994-0.235-17.331-0.646-21.385-0.78C164.757,206.262,164.29,206.246,164.183,206.241z"/>
		</g>
		<g>
			<path fill="#414042" d="M286.68,305.448l-50.269-0.23c-2-0.009-3.866-0.708-5.272-1.959c-1.403-1.264-2.167-2.917-2.155-4.677
				c0.02-3.636,3.38-6.58,7.499-6.562l50.261,0.233c2.004,0.016,3.874,0.707,5.27,1.961c1.404,1.26,2.174,2.922,2.166,4.68
				C294.159,302.533,290.796,305.474,286.68,305.448 M236.482,294.262c-2.733-0.021-4.952,1.921-4.972,4.331
				c-0.013,1.168,0.497,2.262,1.43,3.091c0.92,0.83,2.166,1.292,3.479,1.3l50.273,0.234l0,0c2.727,0.013,4.948-1.933,4.959-4.337
				c0.003-1.168-0.497-2.263-1.43-3.093c-0.931-0.829-2.166-1.288-3.494-1.294L236.482,294.262z"/>
			<path fill="#414042" d="M286.733,306.207h-0.059l-50.267-0.229c-2.176-0.011-4.228-0.774-5.774-2.152
				c-1.566-1.411-2.421-3.273-2.41-5.248c0.023-4.034,3.711-7.317,8.223-7.317l50.301,0.234c2.196,0.016,4.246,0.781,5.773,2.156
				c1.566,1.401,2.426,3.267,2.418,5.246C294.917,302.929,291.237,306.207,286.733,306.207z M236.479,292.778
				c-3.711,0-6.719,2.606-6.736,5.809c-0.01,1.534,0.666,2.993,1.903,4.107c1.269,1.128,2.963,1.755,4.769,1.764l50.268,0.23
				l0.051,0.76v-0.76c3.67,0,6.67-2.603,6.686-5.799c0.008-1.539-0.672-2.999-1.914-4.109c-1.252-1.127-2.945-1.755-4.768-1.768
				L236.479,292.778z M286.72,303.978L286.72,303.978l-50.304-0.234c-1.511-0.009-2.925-0.54-3.983-1.496
				c-1.098-0.975-1.695-2.276-1.681-3.663c0.022-2.801,2.573-5.081,5.687-5.081h0.051l50.241,0.231
				c1.509,0.007,2.928,0.535,3.995,1.486c1.091,0.97,1.689,2.27,1.686,3.662C292.397,301.693,289.846,303.978,286.72,303.978z
				 M236.438,294.262v0.76c-2.283,0-4.152,1.605-4.168,3.577c-0.011,0.942,0.406,1.835,1.175,2.517
				c0.786,0.71,1.843,1.102,2.979,1.108l50.272,0.234l0,0c2.315,0,4.187-1.605,4.194-3.581c0.003-0.949-0.415-1.846-1.175-2.521
				c-0.792-0.705-1.854-1.097-2.993-1.102l-50.244-0.232L236.438,294.262z"/>
		</g>
		<g>
			<path fill="#414042" d="M425.034,306.398l-50.268-0.229c-1.994-0.017-3.869-0.706-5.266-1.961c-1.408-1.256-2.17-2.917-2.16-4.68
				c0.018-3.636,3.377-6.576,7.486-6.562l50.268,0.234c4.129,0.028,7.453,3.001,7.432,6.644
				C432.511,303.483,429.144,306.421,425.034,306.398 M374.833,295.201c-2.73-0.015-4.955,1.935-4.957,4.337
				c-0.012,1.177,0.49,2.271,1.412,3.09c0.938,0.839,2.174,1.298,3.482,1.301l50.264,0.235h0.002
				c2.725,0.014,4.957-1.927,4.961-4.337c0.01-2.403-2.195-4.378-4.914-4.391L374.833,295.201z"/>
			<path fill="#414042" d="M425.079,307.159h-0.047l-50.27-0.231c-2.195-0.018-4.242-0.783-5.77-2.155
				c-1.564-1.396-2.422-3.26-2.412-5.247c0.021-4.036,3.707-7.318,8.217-7.318l50.299,0.233c4.541,0.031,8.211,3.354,8.189,7.407
				C433.269,303.879,429.587,307.159,425.079,307.159z M374.823,293.726c-3.703,0-6.707,2.604-6.723,5.807
				c-0.008,1.547,0.67,3.006,1.904,4.109c1.254,1.125,2.947,1.752,4.768,1.769l50.268,0.229l0.039,0.759v-0.759
				c3.674,0,6.674-2.602,6.688-5.8c0.02-3.218-2.977-5.855-6.678-5.881L374.823,293.726z M425.062,304.925L425.062,304.925
				l-50.295-0.236c-1.496-0.004-2.912-0.535-3.984-1.495c-1.088-0.966-1.678-2.268-1.666-3.662c0.002-2.804,2.555-5.09,5.689-5.09
				h0.031l50.25,0.236c3.139,0.015,5.68,2.325,5.668,5.152C430.753,302.639,428.2,304.925,425.062,304.925z M374.806,295.201v0.759
				c-2.299,0-4.168,1.605-4.17,3.579c-0.01,0.957,0.402,1.849,1.156,2.521c0.799,0.714,1.855,1.107,2.98,1.11l50.268,0.235l0,0
				c2.322,0,4.193-1.605,4.197-3.579c0.008-1.992-1.857-3.62-4.158-3.63l-50.25-0.236L374.806,295.201z"/>
		</g>
		<g>
			<path fill="#414042" d="M286.124,280.874l-45.354-0.216c-5.644-0.022-13.196-1.153-13.495-10.594l0.274-59.466l2.538,0.015
				l-0.269,59.428c0.176,5.911,3.357,8.353,10.964,8.388l45.354,0.209L286.124,280.874z"/>
			<path fill="#414042" d="M286.878,281.637l-46.111-0.219c-3.436-0.014-13.895-0.055-14.252-11.329l0.278-60.254l4.058,0.022
				l-0.272,60.187c0.162,5.447,3.024,7.593,10.208,7.626l46.112,0.212L286.878,281.637z M228.306,211.362l-0.271,58.706
				c0.273,8.666,6.952,9.808,12.738,9.831l44.596,0.212l0.004-0.719l-44.594-0.203c-8.025-0.039-11.53-2.768-11.719-9.127
				l0.265-58.694L228.306,211.362z"/>
		</g>
		<g>
			<path fill="#414042" d="M426.319,277.584l-45.34-0.207c-5.646-0.027-13.188-1.149-13.488-10.59l0.086-17.757l2.527,0.013
				l-0.086,17.726c0.189,5.908,3.359,8.339,10.973,8.378l45.34,0.208L426.319,277.584z"/>
			<path fill="#414042" d="M427.075,278.347l-46.098-0.211c-3.436-0.018-13.887-0.067-14.244-11.325l0.088-18.543l4.045,0.02
				l-0.086,18.484c0.172,5.436,3.037,7.578,10.215,7.615l46.1,0.213L427.075,278.347z M368.333,249.793l-0.082,16.998
				c0.275,8.652,6.949,9.798,12.732,9.826l44.58,0.203l0.004-0.71l-44.58-0.204c-8.018-0.042-11.525-2.768-11.727-9.113l0.08-16.994
				L368.333,249.793z"/>
		</g>
		<g>
			<path fill="#414042" d="M318.778,296.135l-39.209-77.765l-29.502,0.057c-0.189,0.051-0.818,0.601-0.766,2.706l-0.365,39.948
				l38.623,0.182l0.154,0.032c1.799,0.416,5.203,2.417,5.184,6.979c-0.122,2.352-1.528,6.681-5.916,6.704l-13.34-0.064
				l-32.422-0.046c-3.975-0.017-7.453-2.575-7.446-5.47l0.261-55.318c-0.002-0.124-0.059-3.764,3.104-6.638
				c2.416-2.181,5.98-3.296,10.607-3.286l35.143,0.165c3.309-0.135,6.665,0.248,8.438,3.925l36.671,76.771l29.393-77.983
				c0.32-0.869,1.461-2.248,3.176-2.242l27.887,0.168l58.426,0.271c5.416,0.235,12.271,1.79,15.455,5.421
				c2.564,2.969,2.877,7.971,2.826,10.696l-0.188,65.816l38.625,0.176l0.154,0.032c1.811,0.417,5.203,2.417,5.184,6.982
				c-0.123,2.337-1.518,6.687-5.91,6.702l-13.338-0.062l-32.42-0.041c-3.984-0.019-7.461-2.576-7.451-5.471l0.061-74.176
				c-0.023-0.457-0.41-1.256-0.666-1.465c-0.258-0.207-1.361-0.536-1.891-0.543l-57.406-0.081c-0.213,0.054-0.836,0.604-0.777,2.706
				l-0.068,35.89l38.625,0.176l0.152,0.037c1.801,0.411,5.215,2.416,5.191,6.984c-0.131,2.348-1.533,6.688-5.924,6.704
				l-13.348-0.063l-32.408-0.051c-3.984-0.021-7.461-2.571-7.453-5.471l-0.461-47.429c-1.785-0.141-3.469-0.121-4.109,0.04
				l-28.928,76.137c-2.807,5.948-7.574,7.621-9.951,7.818l-2.471-0.197C325.001,301.664,320.892,300.227,318.778,296.135
				 M330.157,286.198c-0.398,0.517-0.846,0.906-1.357,1.174l-0.521,0.272l-0.562-0.188c-1-0.324-1.625-0.756-1.924-1.313
				l-36.805-77.027c-0.992-2.058-2.516-2.693-6.041-2.56l-35.215-0.159c-3.893,0-6.838,0.865-8.761,2.577
				c-2.438,2.182-2.403,5.06-2.403,5.089l-0.262,55.351c-0.012,1.514,2.094,3.209,4.927,3.224l32.425,0.046l13.318,0.064
				c2.094-0.011,2.906-2.024,3.209-3.363l0.094-2.232c-0.437-2.643-2.525-3.479-3.082-3.661l-40.812-0.186l0.385-42.158
				c-0.041-1.987,0.434-3.444,1.425-4.267c0.788-0.648,1.609-0.691,1.919-0.688l31.13-0.058l39.876,79.132
				c1.33,2.601,5.133,4.757,8.281,5.23l0.021,0.002c1.668,0.008,5.854-0.578,8.637-6.424l28.965-76.292
				c0.205-0.55,0.725-1.967,7.85-1.194l1.123,0.12l0.439,49.446c-0.006,1.5,2.105,3.199,4.932,3.212l32.404,0.047l13.332,0.067
				c3.098-0.014,3.4-4.485,3.4-4.533c0.012-3.482-2.551-4.521-3.176-4.718l-40.811-0.188l0.094-38.099
				c-0.057-1.998,0.43-3.441,1.424-4.273c0.781-0.645,1.602-0.692,1.91-0.686l57.375,0.074l0,0c1.025,0.011,2.752,0.474,3.572,1.12
				c0.961,0.76,1.469,2.257,1.518,3.076l-0.059,74.243c-0.008,1.507,2.094,3.201,4.924,3.223l32.412,0.039l13.338,0.061
				c3.105-0.01,3.383-4.471,3.383-4.53c0.01-3.481-2.543-4.515-3.164-4.715l-40.822-0.191l0.207-68.035
				c0.074-4.169-0.764-7.562-2.312-9.333c-2.461-2.839-8.561-4.343-13.508-4.558l-58.365-0.269l-27.889-0.155
				c-0.223,0.007-0.646,0.416-0.754,0.686L330.157,286.198z"/>
			<path fill="#414042" d="M330.456,303.458l-2.678-0.227c-3.578-1.004-7.527-2.591-9.674-6.748l-39.002-77.354l-28.752,0.056
				c-0.131,0.228-0.318,0.809-0.289,1.929l-0.358,39.211l37.938,0.177l0.232,0.051c2.017,0.467,5.803,2.678,5.781,7.725
				c-0.132,2.593-1.695,7.435-6.67,7.462l-13.348-0.065l-32.42-0.046c-4.379-0.018-8.211-2.93-8.203-6.23l0.262-55.321
				c-0.005-0.143-0.07-4.087,3.35-7.195c2.562-2.312,6.282-3.484,11.059-3.484l35.207,0.165c0.312-0.013,0.662-0.022,1.01-0.022
				c2.793,0,6.238,0.498,8.109,4.377l35.904,75.166l28.766-76.315c0.4-1.096,1.768-2.734,3.873-2.734l27.902,0.167l58.426,0.272
				c5.564,0.241,12.674,1.858,16.021,5.681c2.746,3.177,3.068,8.387,3.016,11.21l-0.186,65.046l37.947,0.173l0.229,0.049
				c2.02,0.464,5.809,2.672,5.785,7.728c-0.135,2.596-1.703,7.441-6.666,7.459l-13.346-0.062l-32.418-0.04
				c-4.385-0.021-8.221-2.934-8.209-6.234l0.061-74.173c-0.01-0.188-0.266-0.749-0.4-0.889c-0.154-0.091-1.033-0.354-1.406-0.358
				l-57.125-0.081c-0.111,0.19-0.324,0.719-0.289,1.925l-0.068,35.155l37.961,0.172l0.24,0.06c1.998,0.456,5.793,2.662,5.768,7.727
				c-0.143,2.596-1.723,7.439-6.68,7.458l-13.355-0.062l-32.406-0.051c-4.463-0.022-8.221-2.877-8.211-6.233l-0.453-46.716
				c-0.525-0.029-1.037-0.045-1.512-0.045c-0.623,0-1.033,0.025-1.291,0.054l-28.773,75.728c-2.695,5.719-7.391,8.038-10.596,8.305
				L330.456,303.458z M328.118,301.748l2.334,0.188c2.805-0.258,6.887-2.338,9.268-7.38l29.043-76.453l0.385-0.096
				c0.518-0.131,1.391-0.158,2.031-0.158c0.721,0,1.523,0.033,2.322,0.097l0.693,0.056l0.469,48.122
				c-0.006,2.456,3.186,4.7,6.697,4.719l32.406,0.052l13.35,0.063c3.818-0.016,5.047-3.923,5.164-5.987
				c0.02-4.062-3.004-5.837-4.605-6.202l-0.076-0.02l-39.293-0.178l0.07-36.647c-0.08-2.853,1.014-3.354,1.35-3.44l0.189-0.023
				l57.406,0.082c0.648,0.008,1.932,0.36,2.365,0.71c0.445,0.363,0.914,1.361,0.947,2.017l-0.059,74.217
				c-0.01,2.449,3.182,4.694,6.693,4.711l32.42,0.041l13.34,0.062c3.822-0.014,5.041-3.92,5.148-5.983
				c0.016-4.059-2.998-5.835-4.596-6.202l-0.064-0.014l-39.307-0.179l0.189-66.574c0.049-2.617-0.23-7.406-2.641-10.197
				c-3.031-3.457-9.691-4.933-14.912-5.159l-58.398-0.271l-27.887-0.168c-1.377,0-2.25,1.175-2.459,1.744l-29.965,79.502
				l0.076,0.025l0.234-0.122c0.385-0.204,0.727-0.491,1.039-0.88l29.604-78.371c0.162-0.417,0.781-1.156,1.439-1.175l27.918,0.154
				l58.363,0.269c5.135,0.222,11.459,1.799,14.078,4.82c1.664,1.903,2.574,5.492,2.498,9.844l-0.205,67.267l40.18,0.188l0.113,0.036
				c0.617,0.198,3.701,1.393,3.691,5.439c0,1.045-0.736,5.276-4.139,5.289l-13.346-0.062l-32.408-0.039
				c-3.041-0.022-5.693-1.886-5.684-3.986l0.061-74.24c-0.041-0.638-0.492-1.895-1.23-2.479c-0.67-0.528-2.221-0.949-3.109-0.958
				l-57.369-0.073c-0.268,0.035-0.863,0.05-1.426,0.512c-0.809,0.678-1.197,1.912-1.148,3.665l-0.09,37.365l40.168,0.185
				l0.111,0.035c0.621,0.196,3.717,1.381,3.705,5.444c0,1.045-0.74,5.275-4.156,5.29l-13.34-0.067l-32.4-0.046
				c-3.043-0.015-5.699-1.872-5.691-3.975l-0.434-48.76l-0.449-0.049c-1.354-0.146-2.545-0.221-3.539-0.221
				c-2.105,0-3.289,0.311-3.52,0.924l-28.967,76.297c-2.969,6.247-7.502,6.915-9.314,6.915l-0.139-0.007
				c-3.156-0.475-7.322-2.61-8.871-5.641l-39.668-78.716l-30.66,0.056l0,0c-0.322,0-0.895,0.067-1.439,0.516
				c-0.992,0.824-1.172,2.448-1.146,3.666l-0.379,41.417l40.168,0.184l0.113,0.036c0.717,0.232,3.097,1.229,3.596,4.259l0.014,0.077
				l-0.115,2.446c-0.566,2.504-2.004,3.946-3.945,3.955l-13.326-0.064l-32.422-0.046c-1.834-0.009-3.578-0.673-4.669-1.777
				c-0.661-0.669-1.022-1.453-1.017-2.21l0.262-55.349c-0.002-0.328,0.058-3.326,2.656-5.651c2.066-1.84,5.183-2.771,9.268-2.771
				l35.219,0.16c0.274-0.011,0.566-0.017,0.846-0.017c3.186,0,4.834,0.843,5.875,3.006l36.807,77.03
				c0.186,0.343,0.686,0.662,1.473,0.917l0.031,0.011l-37.34-78.171c-1.189-2.462-3.205-3.515-6.74-3.515
				c-0.328,0-0.656,0.008-0.982,0.021l-35.177-0.163c-4.446,0-7.824,1.04-10.096,3.09c-2.901,2.638-2.854,6.021-2.853,6.055
				l-0.262,55.343c-0.005,2.447,3.184,4.691,6.69,4.706l32.42,0.046l13.342,0.064c3.832-0.021,5.048-3.924,5.155-5.984
				c0.016-4.053-3-5.831-4.597-6.2l-0.067-0.015l-39.305-0.184l0.373-40.711c-0.076-2.906,1.092-3.369,1.326-3.433l0.195-0.025
				l29.971-0.058l39.422,78.182C321.319,299.401,324.872,300.833,328.118,301.748z M281.709,215.374l40.087,79.549
				c1.113,2.178,4.555,4.333,7.68,4.816c1.584-0.014,5.352-0.643,7.895-5.992l28.941-76.234c0.354-0.944,1.217-1.909,4.941-1.909
				c1.049,0,2.295,0.077,3.701,0.23l1.793,0.191l0.445,50.122c-0.002,0.978,1.66,2.448,4.178,2.46l32.402,0.047l13.334,0.067
				c2.346-0.011,2.637-3.772,2.639-3.812c0.008-2.746-1.824-3.668-2.543-3.923l-41.447-0.191l0.096-38.855
				c-0.062-2.218,0.506-3.859,1.695-4.854c0.914-0.751,1.863-0.862,2.35-0.862l57.426,0.073c1.186,0.014,3.086,0.533,4.039,1.285
				c1.217,0.959,1.754,2.732,1.807,3.626l-0.057,74.29c-0.004,0.97,1.656,2.443,4.172,2.463l32.406,0.038l13.34,0.062
				c2.355-0.007,2.619-3.765,2.621-3.803c0.006-2.738-1.818-3.667-2.533-3.925l-41.457-0.194l0.211-68.793
				c0.07-3.99-0.705-7.204-2.127-8.831c-2.311-2.669-8.342-4.099-12.969-4.299l-58.334-0.269l-27.746-0.154
				c-0.07,0.06-0.164,0.16-0.191,0.216l-29.674,78.562l-0.068,0.088c-0.463,0.601-1.002,1.067-1.607,1.385l-0.809,0.423l-0.871-0.29
				c-1.182-0.384-1.953-0.933-2.352-1.675l-36.82-77.06c-0.685-1.421-1.57-2.144-4.506-2.144c-0.26,0-0.533,0.006-0.82,0.017
				l-35.248-0.16c-3.697,0-6.475,0.803-8.252,2.386c-2.138,1.914-2.15,4.412-2.149,4.517l-0.263,55.359
				c-0.002,0.352,0.203,0.755,0.58,1.134c0.812,0.823,2.156,1.318,3.594,1.326l32.422,0.046l13.319,0.065
				c1.494-0.009,2.157-1.461,2.45-2.707l0.087-2.08c-0.362-1.996-1.849-2.733-2.448-2.951l-41.451-0.19l0.394-42.92
				c-0.046-2.233,0.524-3.871,1.698-4.844c0.914-0.753,1.883-0.864,2.378-0.864L281.709,215.374z"/>
		</g>
		<g>
			<path fill="#414042" d="M502.157,306.95l-45.346-0.208c-5.639-0.027-13.186-1.16-13.48-10.601l2.52-0.055
				c0.188,5.943,3.373,8.38,10.971,8.42l45.34,0.208L502.157,306.95z"/>
			<path fill="#414042" d="M502.917,307.713l-46.109-0.212c-3.434-0.017-13.883-0.066-14.234-11.336l-0.025-0.767l4.039-0.088
				l0.023,0.753c0.172,5.491,3.037,7.646,10.215,7.685l46.096,0.212L502.917,307.713z M444.132,296.883
				c0.631,7.994,7.076,9.073,12.684,9.1l44.582,0.205l0.004-0.717l-44.584-0.204c-7.695-0.041-11.234-2.565-11.684-8.404
				L444.132,296.883z"/>
		</g>
	</g>
</g>
</svg>
